<?xml version="1.0" encoding="utf-8"?>
<!-- Generator: Adobe Illustrator 14.0.0, SVG Export Plug-In . SVG Version: 6.00 Build 43363)  -->
<!DOCTYPE svg PUBLIC "-//W3C//DTD SVG 1.1//EN" "http://www.w3.org/Graphics/SVG/1.1/DTD/svg11.dtd">
<svg version="1.1" id="Layer_1" xmlns="http://www.w3.org/2000/svg" xmlns:xlink="http://www.w3.org/1999/xlink" x="0px" y="0px"
	 width="840px" height="600px" viewBox="0 0 840 600" enable-background="new 0 0 840 600" xml:space="preserve">
<g>
	<path fill="#FFFFFF" d="M176.442,344.638h-0.578v-7.006h0.578V344.638z"/>
	<path fill="#FFFFFF" d="M179.16,337.632l2.574,6.169h0.029l2.584-6.169h0.76v7.006h-0.573v-3.094l0.048-3.065l-0.029-0.009
		l-2.603,6.168h-0.399l-2.598-6.14l-0.029,0.005l0.053,3.041v3.094h-0.573v-7.006H179.16z"/>
	<path fill="#FFFFFF" d="M187.518,341.727v2.911h-0.573v-7.006h2.411c0.734,0,1.303,0.188,1.706,0.561
		c0.403,0.374,0.604,0.869,0.604,1.484c0,0.622-0.201,1.12-0.604,1.492c-0.402,0.372-0.971,0.558-1.706,0.558H187.518z
		 M187.518,341.236h1.838c0.578,0,1.011-0.147,1.302-0.44c0.29-0.294,0.435-0.663,0.435-1.109c0-0.449-0.144-0.822-0.433-1.118
		c-0.289-0.297-0.724-0.445-1.304-0.445h-1.838V341.236z"/>
	<path fill="#FFFFFF" d="M193.6,341.472v3.166h-0.572v-7.001h2.372c0.75,0,1.326,0.164,1.727,0.493s0.602,0.81,0.602,1.441
		c0,0.372-0.107,0.705-0.322,0.998c-0.215,0.294-0.518,0.508-0.91,0.643c0.433,0.109,0.745,0.304,0.936,0.585
		c0.191,0.28,0.286,0.632,0.286,1.056v0.659c0,0.218,0.026,0.414,0.077,0.587c0.051,0.174,0.136,0.314,0.255,0.424v0.115h-0.587
		c-0.119-0.115-0.202-0.277-0.25-0.486c-0.048-0.208-0.072-0.425-0.072-0.649v-0.64c0-0.43-0.139-0.77-0.417-1.018
		c-0.277-0.249-0.665-0.373-1.162-0.373H193.6z M193.6,340.98h1.728c0.632,0,1.094-0.127,1.386-0.382s0.438-0.6,0.438-1.032
		c0-0.462-0.146-0.817-0.436-1.065c-0.291-0.249-0.729-0.373-1.316-0.373h-1.8V340.98z"/>
	<path fill="#FFFFFF" d="M204.643,341.707c0,0.905-0.248,1.637-0.743,2.194c-0.496,0.559-1.161,0.837-1.995,0.837
		c-0.821,0-1.477-0.278-1.965-0.837c-0.489-0.558-0.734-1.289-0.734-2.194v-1.14c0-0.901,0.244-1.633,0.731-2.194
		c0.487-0.562,1.142-0.842,1.963-0.842c0.834,0,1.5,0.28,1.997,0.842c0.497,0.562,0.746,1.293,0.746,2.194V341.707z M204.07,340.562
		c0-0.758-0.191-1.369-0.575-1.831c-0.383-0.463-0.915-0.694-1.595-0.694c-0.667,0-1.187,0.231-1.559,0.694
		c-0.372,0.462-0.558,1.073-0.558,1.831v1.151c0,0.765,0.187,1.379,0.561,1.841c0.374,0.463,0.895,0.694,1.562,0.694
		c0.683,0,1.215-0.23,1.595-0.691c0.38-0.461,0.57-1.075,0.57-1.844V340.562z"/>
	<path fill="#FFFFFF" d="M208.02,343.454l0.14,0.467h0.029l0.14-0.467l2.103-5.822h0.625l-2.612,7.006H207.9l-2.613-7.006h0.625
		L208.02,343.454z"/>
	<path fill="#FFFFFF" d="M216.075,341.245h-3.373v2.901h3.864v0.491h-4.437v-7.006h4.412v0.491h-3.839v2.632h3.373V341.245z"/>
	<path fill="#FFFFFF" d="M224.899,338.123h-2.411v6.515h-0.578v-6.515H219.5v-0.491h5.399V338.123z"/>
	<path fill="#FFFFFF" d="M231.169,344.638h-0.573v-3.224h-3.984v3.224h-0.573v-7.006h0.573v3.291h3.984v-3.291h0.573V344.638z"/>
	<path fill="#FFFFFF" d="M236.953,341.245h-3.373v2.901h3.864v0.491h-4.437v-7.006h4.412v0.491h-3.839v2.632h3.373V341.245z"/>
	<path fill="#FFFFFF" d="M242.303,342.655l0.212,1.073l0.029,0.005l0.265-1.078l1.482-5.023h0.543l1.482,5.023l0.255,1.083
		l0.029-0.005l0.226-1.078l1.266-5.023h0.587l-1.8,7.006h-0.543l-1.573-5.375l-0.183-0.735h-0.029l-0.178,0.735l-1.588,5.375h-0.548
		l-1.799-7.006h0.592L242.303,342.655z"/>
	<path fill="#FFFFFF" d="M253.46,342.685h-3.209l-0.722,1.953h-0.597l2.661-7.006h0.543l2.642,7.006h-0.597L253.46,342.685z
		 M250.444,342.169h2.829l-1.396-3.791h-0.029L250.444,342.169z"/>
	<path fill="#FFFFFF" d="M259.928,338.123h-2.411v6.515h-0.578v-6.515h-2.411v-0.491h5.399V338.123z"/>
	<path fill="#FFFFFF" d="M264.999,342.917c0-0.381-0.143-0.692-0.428-0.934c-0.286-0.242-0.783-0.456-1.492-0.642
		c-0.767-0.192-1.347-0.442-1.742-0.751c-0.395-0.308-0.592-0.723-0.592-1.246c0-0.535,0.22-0.972,0.662-1.309
		c0.441-0.337,1.008-0.505,1.701-0.505c0.722,0,1.304,0.2,1.747,0.602c0.443,0.4,0.658,0.89,0.645,1.467l-0.014,0.029h-0.529
		c0-0.469-0.166-0.854-0.498-1.155c-0.332-0.301-0.782-0.452-1.35-0.452c-0.562,0-1,0.125-1.316,0.376
		c-0.316,0.25-0.474,0.561-0.474,0.933c0,0.354,0.146,0.647,0.438,0.884c0.292,0.235,0.795,0.443,1.511,0.623
		c0.754,0.192,1.327,0.452,1.72,0.779s0.589,0.759,0.589,1.294c0,0.559-0.229,1.003-0.686,1.333s-1.04,0.495-1.749,0.495
		c-0.699,0-1.31-0.175-1.831-0.526c-0.521-0.352-0.774-0.863-0.758-1.537l0.01-0.029h0.529c0,0.544,0.204,0.947,0.611,1.209
		c0.407,0.263,0.887,0.394,1.438,0.394c0.555,0,1.003-0.122,1.345-0.365C264.828,343.64,264.999,343.317,264.999,342.917z"/>
	<path fill="#FFFFFF" d="M176.88,353.923v2.54h-1.405v-7.006h2.791c0.805,0,1.438,0.205,1.9,0.616
		c0.462,0.41,0.693,0.951,0.693,1.621c0,0.671-0.231,1.21-0.693,1.617s-1.096,0.611-1.9,0.611H176.88z M176.88,352.84h1.386
		c0.391,0,0.688-0.106,0.89-0.32c0.202-0.213,0.303-0.485,0.303-0.815c0-0.337-0.1-0.615-0.301-0.835
		c-0.2-0.22-0.498-0.329-0.892-0.329h-1.386V352.84z"/>
	<path fill="#FFFFFF" d="M186.2,353.384h-2.901v1.996h3.392v1.083h-4.797v-7.006h4.788v1.083h-3.382v1.761h2.901V353.384z"/>
	<path fill="#FFFFFF" d="M193.186,353.591c0,0.859-0.271,1.569-0.815,2.131c-0.543,0.562-1.25,0.842-2.12,0.842
		c-0.863,0-1.563-0.28-2.103-0.842s-0.808-1.271-0.808-2.131v-1.261c0-0.856,0.269-1.566,0.806-2.13
		c0.537-0.563,1.237-0.844,2.1-0.844c0.87,0,1.577,0.281,2.122,0.844c0.545,0.563,0.818,1.273,0.818,2.13V353.591z M191.781,352.323
		c0-0.546-0.136-0.994-0.409-1.345c-0.272-0.351-0.648-0.525-1.126-0.525c-0.478,0-0.848,0.175-1.111,0.523
		s-0.395,0.798-0.395,1.347v1.273c0,0.556,0.133,1.009,0.399,1.359s0.637,0.525,1.111,0.525c0.481,0,0.856-0.175,1.126-0.525
		s0.404-0.804,0.404-1.359V352.323z"/>
	<path fill="#FFFFFF" d="M195.688,353.923v2.54h-1.405v-7.006h2.791c0.805,0,1.438,0.205,1.9,0.616
		c0.462,0.41,0.693,0.951,0.693,1.621c0,0.671-0.231,1.21-0.693,1.617s-1.096,0.611-1.9,0.611H195.688z M195.688,352.84h1.386
		c0.391,0,0.688-0.106,0.89-0.32c0.202-0.213,0.303-0.485,0.303-0.815c0-0.337-0.1-0.615-0.301-0.835
		c-0.2-0.22-0.498-0.329-0.892-0.329h-1.386V352.84z"/>
	<path fill="#FFFFFF" d="M202.107,355.38h3.118v1.083h-4.523v-7.006h1.405V355.38z"/>
	<path fill="#FFFFFF" d="M210.339,353.384h-2.901v1.996h3.392v1.083h-4.797v-7.006h4.788v1.083h-3.382v1.761h2.901V353.384z"/>
	<path fill="#FFFFFF" d="M217.927,354.635c0-0.27-0.096-0.486-0.287-0.649c-0.191-0.164-0.525-0.318-1.003-0.462
		c-0.834-0.241-1.464-0.526-1.891-0.856c-0.427-0.331-0.64-0.783-0.64-1.357s0.245-1.043,0.734-1.407s1.114-0.546,1.874-0.546
		c0.77,0,1.397,0.204,1.881,0.613s0.719,0.913,0.703,1.513l-0.01,0.029h-1.361c0-0.324-0.108-0.586-0.325-0.787
		c-0.216-0.2-0.521-0.3-0.912-0.3c-0.375,0-0.666,0.083-0.871,0.25c-0.205,0.167-0.308,0.38-0.308,0.64
		c0,0.237,0.11,0.433,0.33,0.585s0.599,0.313,1.138,0.483c0.773,0.215,1.358,0.499,1.756,0.852s0.597,0.816,0.597,1.391
		c0,0.6-0.237,1.073-0.71,1.419c-0.473,0.347-1.098,0.52-1.874,0.52c-0.763,0-1.429-0.196-1.997-0.589s-0.844-0.944-0.828-1.653
		l0.01-0.028h1.366c0,0.417,0.127,0.723,0.383,0.917c0.255,0.193,0.61,0.291,1.065,0.291c0.382,0,0.674-0.079,0.876-0.236
		S217.927,354.897,217.927,354.635z"/>
	<path fill="#FFFFFF" d="M224.702,353.384h-2.901v1.996h3.392v1.083h-4.797v-7.006h4.788v1.083h-3.382v1.761h2.901V353.384z"/>
	<path fill="#FFFFFF" d="M230.36,353.384h-2.901v1.996h3.392v1.083h-4.797v-7.006h4.788v1.083h-3.382v1.761h2.901V353.384z"/>
	<path fill="#FFFFFF" d="M236.605,352.686h0.029l1.53-3.229h1.54l-2.406,4.542v2.464h-1.4v-2.536l-2.363-4.47h1.54L236.605,352.686z
		"/>
	<path fill="#FFFFFF" d="M245.854,353.591c0,0.859-0.271,1.569-0.815,2.131c-0.543,0.562-1.25,0.842-2.12,0.842
		c-0.863,0-1.563-0.28-2.103-0.842s-0.808-1.271-0.808-2.131v-1.261c0-0.856,0.269-1.566,0.806-2.13
		c0.537-0.563,1.237-0.844,2.1-0.844c0.87,0,1.577,0.281,2.122,0.844c0.545,0.563,0.818,1.273,0.818,2.13V353.591z M244.449,352.323
		c0-0.546-0.136-0.994-0.409-1.345c-0.272-0.351-0.648-0.525-1.126-0.525c-0.478,0-0.848,0.175-1.111,0.523
		s-0.395,0.798-0.395,1.347v1.273c0,0.556,0.133,1.009,0.399,1.359s0.637,0.525,1.111,0.525c0.481,0,0.856-0.175,1.126-0.525
		s0.404-0.804,0.404-1.359V352.323z"/>
	<path fill="#FFFFFF" d="M252.494,349.457v4.648c0,0.786-0.26,1.392-0.779,1.818c-0.52,0.427-1.2,0.64-2.04,0.64
		c-0.837,0-1.514-0.213-2.028-0.64s-0.772-1.032-0.772-1.818v-4.648h1.41v4.645c0,0.462,0.124,0.807,0.371,1.036
		c0.247,0.229,0.587,0.344,1.02,0.344c0.439,0,0.784-0.114,1.034-0.342c0.25-0.228,0.375-0.573,0.375-1.038v-4.645H252.494z"/>
</g>
<g>
	<path fill="#FFFFFF" d="M271.561,303.476h-0.578v-7.006h0.578V303.476z"/>
	<path fill="#FFFFFF" d="M274.279,296.47l2.574,6.169h0.029l2.584-6.169h0.76v7.006h-0.573v-3.094l0.048-3.065l-0.029-0.01
		l-2.603,6.168h-0.399l-2.598-6.14l-0.029,0.005l0.053,3.041v3.094h-0.573v-7.006H274.279z"/>
	<path fill="#FFFFFF" d="M282.637,300.564v2.911h-0.573v-7.006h2.411c0.734,0,1.303,0.187,1.706,0.561
		c0.403,0.374,0.604,0.869,0.604,1.484c0,0.623-0.201,1.12-0.604,1.492c-0.402,0.372-0.971,0.558-1.706,0.558H282.637z
		 M282.637,300.074h1.838c0.578,0,1.011-0.146,1.302-0.44c0.29-0.293,0.435-0.663,0.435-1.109c0-0.449-0.144-0.822-0.433-1.119
		c-0.289-0.297-0.724-0.445-1.304-0.445h-1.838V300.074z"/>
	<path fill="#FFFFFF" d="M288.719,300.31v3.166h-0.572v-7.001h2.372c0.75,0,1.326,0.165,1.727,0.493
		c0.401,0.329,0.602,0.809,0.602,1.441c0,0.372-0.107,0.705-0.322,0.998s-0.518,0.508-0.91,0.643
		c0.433,0.109,0.745,0.304,0.936,0.584s0.286,0.632,0.286,1.056v0.659c0,0.218,0.026,0.414,0.077,0.587
		c0.051,0.174,0.136,0.314,0.255,0.424v0.115h-0.587c-0.119-0.115-0.202-0.277-0.25-0.486c-0.048-0.208-0.072-0.425-0.072-0.649
		v-0.64c0-0.43-0.139-0.769-0.417-1.018c-0.277-0.249-0.665-0.373-1.162-0.373H288.719z M288.719,299.819h1.728
		c0.632,0,1.094-0.127,1.386-0.383c0.292-0.255,0.438-0.599,0.438-1.032c0-0.462-0.146-0.817-0.436-1.066
		c-0.291-0.249-0.729-0.373-1.316-0.373h-1.8V299.819z"/>
	<path fill="#FFFFFF" d="M299.762,300.545c0,0.905-0.248,1.636-0.743,2.194c-0.496,0.559-1.161,0.837-1.995,0.837
		c-0.821,0-1.477-0.278-1.965-0.837c-0.489-0.558-0.734-1.289-0.734-2.194v-1.141c0-0.901,0.244-1.632,0.731-2.194
		c0.487-0.562,1.142-0.842,1.963-0.842c0.834,0,1.5,0.281,1.997,0.842c0.497,0.562,0.746,1.292,0.746,2.194V300.545z
		 M299.189,299.399c0-0.758-0.191-1.369-0.575-1.832c-0.383-0.462-0.915-0.694-1.595-0.694c-0.667,0-1.187,0.231-1.559,0.694
		c-0.372,0.463-0.558,1.073-0.558,1.832v1.152c0,0.764,0.187,1.378,0.561,1.84c0.374,0.463,0.895,0.694,1.562,0.694
		c0.683,0,1.215-0.23,1.595-0.691c0.38-0.461,0.57-1.075,0.57-1.843V299.399z"/>
	<path fill="#FFFFFF" d="M303.139,302.292l0.14,0.467h0.029l0.14-0.467l2.103-5.822h0.625l-2.612,7.006h-0.544l-2.613-7.006h0.625
		L303.139,302.292z"/>
	<path fill="#FFFFFF" d="M311.194,300.083h-3.373v2.901h3.864v0.491h-4.437v-7.006h4.412v0.491h-3.839v2.632h3.373V300.083z"/>
	<path fill="#FFFFFF" d="M320.019,296.961h-2.411v6.515h-0.578v-6.515h-2.411v-0.491h5.399V296.961z"/>
	<path fill="#FFFFFF" d="M326.288,303.476h-0.573v-3.224h-3.984v3.224h-0.573v-7.006h0.573v3.292h3.984v-3.292h0.573V303.476z"/>
	<path fill="#FFFFFF" d="M332.072,300.083h-3.373v2.901h3.864v0.491h-4.437v-7.006h4.412v0.491h-3.839v2.632h3.373V300.083z"/>
	<path fill="#FFFFFF" d="M337.422,301.493l0.212,1.073l0.029,0.005l0.265-1.078l1.482-5.023h0.543l1.482,5.023l0.255,1.083
		l0.029-0.005l0.226-1.078l1.266-5.023h0.587l-1.8,7.006h-0.543l-1.573-5.375l-0.183-0.736h-0.029l-0.178,0.736l-1.588,5.375h-0.548
		l-1.799-7.006h0.592L337.422,301.493z"/>
	<path fill="#FFFFFF" d="M348.58,301.522h-3.209l-0.722,1.953h-0.597l2.661-7.006h0.543l2.642,7.006h-0.597L348.58,301.522z
		 M345.563,301.007h2.829l-1.396-3.791h-0.029L345.563,301.007z"/>
	<path fill="#FFFFFF" d="M352.583,300.362l2.17-3.893h0.668l-2.555,4.446v2.56h-0.573v-2.593l-2.536-4.413h0.669L352.583,300.362z"
		/>
	<path fill="#FFFFFF" d="M359.473,300.564v2.911H358.9v-7.006h2.411c0.734,0,1.303,0.187,1.706,0.561
		c0.403,0.374,0.604,0.869,0.604,1.484c0,0.623-0.201,1.12-0.604,1.492c-0.402,0.372-0.971,0.558-1.706,0.558H359.473z
		 M359.473,300.074h1.838c0.578,0,1.011-0.146,1.302-0.44c0.29-0.293,0.435-0.663,0.435-1.109c0-0.449-0.144-0.822-0.433-1.119
		c-0.289-0.297-0.724-0.445-1.304-0.445h-1.838V300.074z"/>
	<path fill="#FFFFFF" d="M368.943,300.083h-3.373v2.901h3.864v0.491h-4.437v-7.006h4.412v0.491h-3.839v2.632h3.373V300.083z"/>
	<path fill="#FFFFFF" d="M375.789,300.545c0,0.905-0.248,1.636-0.743,2.194c-0.496,0.559-1.161,0.837-1.995,0.837
		c-0.821,0-1.477-0.278-1.965-0.837c-0.489-0.558-0.734-1.289-0.734-2.194v-1.141c0-0.901,0.244-1.632,0.731-2.194
		c0.487-0.562,1.142-0.842,1.963-0.842c0.834,0,1.5,0.281,1.997,0.842c0.497,0.562,0.746,1.292,0.746,2.194V300.545z
		 M375.216,299.399c0-0.758-0.191-1.369-0.575-1.832c-0.383-0.462-0.915-0.694-1.595-0.694c-0.667,0-1.187,0.231-1.559,0.694
		c-0.372,0.463-0.558,1.073-0.558,1.832v1.152c0,0.764,0.187,1.378,0.561,1.84c0.374,0.463,0.895,0.694,1.562,0.694
		c0.683,0,1.215-0.23,1.595-0.691c0.38-0.461,0.57-1.075,0.57-1.843V299.399z"/>
	<path fill="#FFFFFF" d="M377.877,300.564v2.911h-0.573v-7.006h2.411c0.734,0,1.303,0.187,1.706,0.561
		c0.403,0.374,0.604,0.869,0.604,1.484c0,0.623-0.201,1.12-0.604,1.492c-0.402,0.372-0.971,0.558-1.706,0.558H377.877z
		 M377.877,300.074h1.838c0.578,0,1.011-0.146,1.302-0.44c0.29-0.293,0.435-0.663,0.435-1.109c0-0.449-0.144-0.822-0.433-1.119
		c-0.289-0.297-0.724-0.445-1.304-0.445h-1.838V300.074z"/>
	<path fill="#FFFFFF" d="M383.979,302.984h3.464v0.491h-4.042v-7.006h0.578V302.984z"/>
	<path fill="#FFFFFF" d="M392.539,300.083h-3.373v2.901h3.864v0.491h-4.437v-7.006h4.412v0.491h-3.839v2.632h3.373V300.083z"/>
	<path fill="#FFFFFF" d="M272.085,315.301h-1.405v-7.006h1.405V315.301z"/>
	<path fill="#FFFFFF" d="M279.148,315.301h-1.4l-2.829-4.787l-0.029,0.004v4.783h-1.405v-7.006h1.405l2.829,4.783l0.029-0.005
		v-4.778h1.4V315.301z"/>
	<path fill="#FFFFFF" d="M285.303,309.378h-1.982v5.923h-1.405v-5.923h-1.973v-1.083h5.36V309.378z"/>
	<path fill="#FFFFFF" d="M290.394,312.222h-2.901v1.996h3.392v1.083h-4.797v-7.006h4.788v1.083h-3.382v1.761h2.901V312.222z"/>
	<path fill="#FFFFFF" d="M293.151,312.5v2.801h-1.405v-7.006h2.642c0.799,0,1.423,0.183,1.874,0.546
		c0.451,0.364,0.676,0.872,0.676,1.523c0,0.362-0.095,0.674-0.284,0.934c-0.189,0.26-0.466,0.47-0.832,0.63
		c0.414,0.122,0.711,0.326,0.893,0.611c0.181,0.285,0.271,0.639,0.271,1.059v0.515c0,0.195,0.027,0.4,0.08,0.613
		c0.053,0.214,0.144,0.371,0.272,0.475v0.101h-1.448c-0.128-0.103-0.212-0.274-0.25-0.515c-0.039-0.241-0.058-0.469-0.058-0.684
		v-0.495c0-0.35-0.096-0.622-0.286-0.815c-0.191-0.194-0.459-0.292-0.806-0.292H293.151z M293.151,311.418h1.212
		c0.395,0,0.688-0.084,0.883-0.25c0.194-0.167,0.291-0.414,0.291-0.741c0-0.321-0.097-0.576-0.291-0.766
		c-0.194-0.188-0.48-0.283-0.859-0.283h-1.236V311.418z"/>
	<path fill="#FFFFFF" d="M302.018,313.79h-2.458l-0.477,1.511h-1.419l2.411-7.006h1.439l2.401,7.006h-1.419L302.018,313.79z
		 M299.906,312.688h1.766l-0.866-2.753h-0.029L299.906,312.688z"/>
	<path fill="#FFFFFF" d="M309.856,312.914l0.01,0.029c0.013,0.754-0.218,1.352-0.691,1.795c-0.473,0.442-1.13,0.663-1.97,0.663
		c-0.844,0-1.528-0.271-2.054-0.813c-0.526-0.542-0.79-1.24-0.79-2.093v-1.391c0-0.851,0.257-1.548,0.77-2.094
		c0.513-0.545,1.181-0.817,2.001-0.817c0.866,0,1.543,0.222,2.031,0.666c0.487,0.444,0.725,1.05,0.712,1.816l-0.009,0.029H308.5
		c0-0.462-0.111-0.815-0.332-1.062c-0.221-0.245-0.566-0.368-1.035-0.368c-0.42,0-0.753,0.171-1,0.513
		c-0.247,0.341-0.371,0.776-0.371,1.305v1.398c0,0.535,0.13,0.974,0.39,1.315c0.26,0.341,0.611,0.512,1.054,0.512
		c0.439,0,0.764-0.118,0.975-0.354c0.21-0.236,0.315-0.587,0.315-1.052H309.856z"/>
	<path fill="#FFFFFF" d="M315.543,309.378h-1.982v5.923h-1.405v-5.923h-1.973v-1.083h5.36V309.378z"/>
	<path fill="#FFFFFF" d="M324.325,313.097h0.029l1.001-4.802h1.371l-1.636,7.006h-1.304l-1.285-4.624h-0.029l-1.285,4.624h-1.304
		l-1.641-7.006h1.376l1.005,4.797l0.029,0.005l1.314-4.802h1.034L324.325,313.097z"/>
	<path fill="#FFFFFF" d="M329.006,315.301h-1.405v-7.006h1.405V315.301z"/>
	<path fill="#FFFFFF" d="M335.247,309.378h-1.982v5.923h-1.405v-5.923h-1.973v-1.083h5.36V309.378z"/>
	<path fill="#FFFFFF" d="M341.694,315.301h-1.4v-2.911h-2.858v2.911h-1.405v-7.006h1.405v3.013h2.858v-3.013h1.4V315.301z"/>
	<path fill="#FFFFFF" d="M347.901,311.523h0.029l1.53-3.229H351l-2.406,4.542v2.464h-1.4v-2.536l-2.363-4.47h1.54L347.901,311.523z"
		/>
	<path fill="#FFFFFF" d="M357.149,312.429c0,0.859-0.271,1.569-0.815,2.131c-0.543,0.562-1.25,0.842-2.12,0.842
		c-0.863,0-1.563-0.28-2.103-0.842s-0.808-1.271-0.808-2.131v-1.261c0-0.856,0.269-1.566,0.806-2.13
		c0.537-0.563,1.237-0.844,2.1-0.844c0.87,0,1.577,0.281,2.122,0.844c0.545,0.563,0.818,1.273,0.818,2.13V312.429z M355.744,311.161
		c0-0.546-0.136-0.994-0.409-1.345c-0.272-0.351-0.648-0.525-1.126-0.525c-0.478,0-0.848,0.175-1.111,0.523
		s-0.395,0.798-0.395,1.347v1.273c0,0.556,0.133,1.009,0.399,1.359s0.637,0.525,1.111,0.525c0.481,0,0.856-0.175,1.126-0.525
		s0.404-0.804,0.404-1.359V311.161z"/>
	<path fill="#FFFFFF" d="M363.789,308.295v4.648c0,0.786-0.26,1.392-0.779,1.818s-1.2,0.64-2.04,0.64
		c-0.837,0-1.514-0.213-2.028-0.64s-0.772-1.032-0.772-1.818v-4.648h1.41v4.645c0,0.462,0.124,0.807,0.371,1.036
		c0.247,0.229,0.587,0.344,1.02,0.344c0.439,0,0.784-0.114,1.034-0.342c0.25-0.228,0.375-0.573,0.375-1.038v-4.645H363.789z"/>
</g>
<g>
	<path fill="#FFFFFF" d="M398.033,270.397h-3.209l-0.722,1.954h-0.597l2.661-7.006h0.543l2.642,7.006h-0.597L398.033,270.397z
		 M395.017,269.882h2.829l-1.396-3.792h-0.029L395.017,269.882z"/>
	<path fill="#FFFFFF" d="M401.002,271.86h3.464v0.491h-4.042v-7.006h0.578V271.86z"/>
	<path fill="#FFFFFF" d="M406.15,270.368l0.212,1.073l0.029,0.004l0.265-1.078l1.482-5.023h0.543l1.482,5.023l0.255,1.083
		l0.029-0.005l0.226-1.078l1.266-5.023h0.587l-1.8,7.006h-0.543l-1.573-5.375l-0.183-0.736h-0.029l-0.178,0.736l-1.588,5.375h-0.548
		l-1.799-7.006h0.592L406.15,270.368z"/>
	<path fill="#FFFFFF" d="M417.309,270.397h-3.209l-0.722,1.954h-0.597l2.661-7.006h0.543l2.642,7.006h-0.597L417.309,270.397z
		 M414.292,269.882h2.829l-1.396-3.792h-0.029L414.292,269.882z"/>
	<path fill="#FFFFFF" d="M421.312,269.237l2.17-3.893h0.669l-2.555,4.446v2.56h-0.572v-2.593l-2.536-4.413h0.669L421.312,269.237z"
		/>
	<path fill="#FFFFFF" d="M429.164,270.63c0-0.381-0.143-0.693-0.428-0.935c-0.286-0.242-0.783-0.456-1.492-0.641
		c-0.767-0.192-1.347-0.443-1.741-0.75c-0.395-0.308-0.592-0.724-0.592-1.247c0-0.536,0.221-0.972,0.661-1.309
		c0.441-0.337,1.008-0.505,1.701-0.505c0.722,0,1.304,0.201,1.747,0.602c0.442,0.401,0.657,0.89,0.645,1.468l-0.015,0.029h-0.529
		c0-0.468-0.166-0.854-0.498-1.155c-0.332-0.302-0.782-0.452-1.35-0.452c-0.562,0-1,0.125-1.316,0.375
		c-0.315,0.25-0.474,0.562-0.474,0.934c0,0.353,0.146,0.647,0.438,0.883c0.292,0.236,0.796,0.443,1.512,0.623
		c0.753,0.192,1.327,0.453,1.72,0.78s0.59,0.758,0.59,1.294c0,0.558-0.229,1.002-0.687,1.333c-0.457,0.331-1.04,0.496-1.749,0.496
		c-0.699,0-1.31-0.176-1.83-0.527c-0.521-0.351-0.774-0.864-0.758-1.537l0.01-0.029h0.529c0,0.544,0.203,0.947,0.61,1.209
		s0.887,0.394,1.438,0.394c0.556,0,1.004-0.122,1.346-0.365C428.993,271.353,429.164,271.031,429.164,270.63z"/>
	<path fill="#FFFFFF" d="M435.011,269.06h-0.963v3.291h-0.572v-7.006h0.572v3.224h0.958l2.757-3.224h0.649l0.01,0.024l-2.896,3.423
		l3.104,3.535l-0.01,0.024h-0.684L435.011,269.06z"/>
	<path fill="#FFFFFF" d="M444.927,272.351h-0.572l-3.979-6.024l-0.029,0.004v6.02h-0.577v-7.006h0.577l3.979,6.015l0.029-0.005
		v-6.01h0.572V272.351z"/>
	<path fill="#FFFFFF" d="M451.88,269.42c0,0.904-0.248,1.636-0.744,2.194c-0.495,0.558-1.16,0.837-1.994,0.837
		c-0.821,0-1.477-0.279-1.966-0.837s-0.733-1.29-0.733-2.194v-1.141c0-0.901,0.244-1.632,0.731-2.194s1.142-0.842,1.963-0.842
		c0.834,0,1.5,0.281,1.997,0.842s0.746,1.292,0.746,2.194V269.42z M451.307,268.274c0-0.758-0.191-1.369-0.575-1.832
		c-0.383-0.462-0.915-0.694-1.595-0.694c-0.667,0-1.187,0.231-1.559,0.694c-0.372,0.463-0.559,1.073-0.559,1.832v1.152
		c0,0.764,0.188,1.378,0.561,1.841c0.374,0.462,0.895,0.694,1.562,0.694c0.684,0,1.215-0.23,1.595-0.691
		c0.381-0.461,0.57-1.076,0.57-1.843V268.274z"/>
	<path fill="#FFFFFF" d="M454.618,270.368l0.211,1.073l0.029,0.004l0.265-1.078l1.481-5.023h0.544l1.482,5.023l0.255,1.083
		l0.028-0.005l0.227-1.078l1.266-5.023h0.587l-1.8,7.006h-0.544l-1.573-5.375l-0.183-0.736h-0.029l-0.178,0.736l-1.588,5.375h-0.548
		l-1.8-7.006h0.592L454.618,270.368z"/>
	<path fill="#FFFFFF" d="M469.745,272.351h-0.572v-3.224h-3.984v3.224h-0.572v-7.006h0.572v3.292h3.984v-3.292h0.572V272.351z"/>
	<path fill="#FFFFFF" d="M476.698,269.42c0,0.904-0.248,1.636-0.744,2.194c-0.495,0.558-1.16,0.837-1.994,0.837
		c-0.821,0-1.477-0.279-1.966-0.837s-0.733-1.29-0.733-2.194v-1.141c0-0.901,0.244-1.632,0.731-2.194s1.142-0.842,1.963-0.842
		c0.834,0,1.5,0.281,1.997,0.842s0.746,1.292,0.746,2.194V269.42z M476.125,268.274c0-0.758-0.191-1.369-0.575-1.832
		c-0.383-0.462-0.915-0.694-1.595-0.694c-0.667,0-1.187,0.231-1.559,0.694c-0.372,0.463-0.559,1.073-0.559,1.832v1.152
		c0,0.764,0.188,1.378,0.561,1.841c0.374,0.462,0.895,0.694,1.562,0.694c0.684,0,1.215-0.23,1.595-0.691
		c0.381-0.461,0.57-1.076,0.57-1.843V268.274z"/>
	<path fill="#FFFFFF" d="M479.436,270.368l0.211,1.073l0.029,0.004l0.265-1.078l1.481-5.023h0.544l1.482,5.023l0.255,1.083
		l0.028-0.005l0.227-1.078l1.266-5.023h0.587l-1.8,7.006h-0.544l-1.573-5.375l-0.183-0.736h-0.029l-0.178,0.736l-1.588,5.375h-0.548
		l-1.8-7.006h0.592L479.436,270.368z"/>
	<path fill="#FFFFFF" d="M396.445,280.399h0.029l1.53-3.229h1.54l-2.406,4.542v2.463h-1.4v-2.536l-2.363-4.47h1.54L396.445,280.399z
		"/>
	<path fill="#FFFFFF" d="M405.693,281.303c0,0.86-0.271,1.57-0.815,2.131c-0.543,0.562-1.25,0.842-2.12,0.842
		c-0.863,0-1.563-0.281-2.103-0.842c-0.539-0.561-0.808-1.271-0.808-2.131v-1.261c0-0.856,0.269-1.566,0.806-2.129
		s1.237-0.845,2.1-0.845c0.87,0,1.577,0.282,2.122,0.845s0.818,1.272,0.818,2.129V281.303z M404.288,280.037
		c0-0.546-0.136-0.995-0.409-1.345c-0.272-0.35-0.648-0.525-1.126-0.525c-0.478,0-0.848,0.174-1.111,0.523
		c-0.263,0.349-0.395,0.797-0.395,1.347v1.272c0,0.556,0.133,1.009,0.399,1.36c0.266,0.35,0.637,0.525,1.111,0.525
		c0.481,0,0.856-0.175,1.126-0.525c0.27-0.351,0.404-0.804,0.404-1.36V280.037z"/>
	<path fill="#FFFFFF" d="M412.333,277.17v4.648c0,0.786-0.26,1.393-0.779,1.819c-0.52,0.427-1.2,0.64-2.04,0.64
		c-0.837,0-1.514-0.213-2.028-0.64c-0.515-0.426-0.772-1.033-0.772-1.819v-4.648h1.41v4.645c0,0.461,0.124,0.807,0.371,1.036
		c0.247,0.229,0.587,0.344,1.02,0.344c0.439,0,0.784-0.114,1.034-0.341c0.25-0.228,0.375-0.574,0.375-1.039v-4.645H412.333z"/>
	<path fill="#FFFFFF" d="M417.419,281.635v2.541h-1.405v-7.006h2.791c0.805,0,1.438,0.206,1.9,0.616
		c0.461,0.411,0.693,0.951,0.693,1.622s-0.231,1.209-0.693,1.617c-0.462,0.407-1.096,0.611-1.9,0.611H417.419z M417.419,280.553
		h1.386c0.391,0,0.688-0.106,0.89-0.32c0.202-0.213,0.303-0.485,0.303-0.816c0-0.337-0.1-0.615-0.301-0.834
		c-0.2-0.22-0.498-0.33-0.892-0.33h-1.386V280.553z"/>
	<path fill="#FFFFFF" d="M426.739,281.096h-2.901v1.997h3.392v1.083h-4.797v-7.006h4.788v1.083h-3.383v1.761h2.901V281.096z"/>
	<path fill="#FFFFFF" d="M429.496,281.375v2.8h-1.405v-7.006h2.642c0.799,0,1.424,0.182,1.874,0.546
		c0.451,0.364,0.676,0.872,0.676,1.523c0,0.362-0.095,0.673-0.283,0.933c-0.189,0.26-0.467,0.47-0.833,0.63
		c0.414,0.122,0.712,0.326,0.893,0.611c0.182,0.286,0.272,0.638,0.272,1.059v0.515c0,0.196,0.026,0.4,0.079,0.613
		c0.053,0.213,0.144,0.372,0.271,0.474v0.101h-1.448c-0.128-0.103-0.212-0.274-0.25-0.515c-0.038-0.241-0.058-0.468-0.058-0.684
		v-0.496c0-0.35-0.096-0.621-0.286-0.815c-0.191-0.194-0.46-0.291-0.806-0.291H429.496z M429.496,280.293h1.212
		c0.395,0,0.689-0.083,0.884-0.25c0.193-0.167,0.291-0.414,0.291-0.741c0-0.321-0.098-0.576-0.291-0.765
		c-0.194-0.189-0.48-0.284-0.859-0.284h-1.236V280.293z"/>
	<path fill="#FFFFFF" d="M438.945,281.265h-2.935v2.911h-1.405v-7.006h4.831v1.083h-3.426v1.929h2.935V281.265z"/>
	<path fill="#FFFFFF" d="M445.928,281.303c0,0.86-0.272,1.57-0.815,2.131c-0.544,0.562-1.251,0.842-2.12,0.842
		c-0.862,0-1.563-0.281-2.103-0.842c-0.539-0.561-0.809-1.271-0.809-2.131v-1.261c0-0.856,0.269-1.566,0.807-2.129
		c0.537-0.563,1.237-0.845,2.1-0.845c0.869,0,1.577,0.282,2.122,0.845s0.818,1.272,0.818,2.129V281.303z M444.522,280.037
		c0-0.546-0.137-0.995-0.409-1.345c-0.272-0.35-0.647-0.525-1.126-0.525c-0.478,0-0.849,0.174-1.111,0.523
		c-0.263,0.349-0.395,0.797-0.395,1.347v1.272c0,0.556,0.133,1.009,0.399,1.36c0.267,0.35,0.637,0.525,1.111,0.525
		c0.481,0,0.856-0.175,1.126-0.525c0.27-0.351,0.404-0.804,0.404-1.36V280.037z"/>
	<path fill="#FFFFFF" d="M448.43,281.375v2.8h-1.405v-7.006h2.642c0.799,0,1.424,0.182,1.874,0.546
		c0.451,0.364,0.676,0.872,0.676,1.523c0,0.362-0.095,0.673-0.283,0.933c-0.189,0.26-0.467,0.47-0.833,0.63
		c0.414,0.122,0.712,0.326,0.893,0.611c0.182,0.286,0.272,0.638,0.272,1.059v0.515c0,0.196,0.026,0.4,0.079,0.613
		c0.053,0.213,0.144,0.372,0.271,0.474v0.101h-1.448c-0.128-0.103-0.212-0.274-0.25-0.515c-0.038-0.241-0.058-0.468-0.058-0.684
		v-0.496c0-0.35-0.096-0.621-0.286-0.815c-0.191-0.194-0.46-0.291-0.806-0.291H448.43z M448.43,280.293h1.212
		c0.395,0,0.689-0.083,0.884-0.25c0.193-0.167,0.291-0.414,0.291-0.741c0-0.321-0.098-0.576-0.291-0.765
		c-0.194-0.189-0.48-0.284-0.859-0.284h-1.236V280.293z"/>
	<path fill="#FFFFFF" d="M455.372,277.17l1.785,5.163h0.029l1.8-5.163h1.838v7.006h-1.405v-2.088l0.135-3.094l-0.029-0.005
		l-1.876,5.187h-0.943l-1.867-5.167l-0.028,0.005l0.135,3.074v2.088h-1.405v-7.006H455.372z"/>
</g>
<g>
	<path fill="#FFFFFF" d="M477.318,219.659h-0.577v-7.006h0.577V219.659z"/>
	<path fill="#FFFFFF" d="M484.44,219.659h-0.572l-3.979-6.024l-0.029,0.004v6.02h-0.577v-7.006h0.577l3.979,6.015l0.029-0.005v-6.01
		h0.572V219.659z"/>
	<path fill="#FFFFFF" d="M491.104,217.469l0.01,0.029c-0.062,0.703-0.312,1.255-0.751,1.658c-0.439,0.403-1.028,0.604-1.766,0.604
		c-0.779,0-1.408-0.282-1.886-0.844c-0.479-0.563-0.718-1.292-0.718-2.187v-1.141c0-0.892,0.239-1.621,0.718-2.187
		c0.478-0.566,1.106-0.85,1.886-0.85c0.744,0,1.334,0.197,1.771,0.592c0.437,0.395,0.685,0.949,0.746,1.665l-0.01,0.029h-0.539
		c-0.077-0.581-0.276-1.025-0.599-1.333c-0.322-0.308-0.779-0.462-1.369-0.462c-0.613,0-1.104,0.237-1.475,0.711
		c-0.371,0.474-0.556,1.082-0.556,1.822v1.149c0,0.75,0.185,1.361,0.556,1.834c0.37,0.473,0.861,0.709,1.475,0.709
		c0.59,0,1.047-0.15,1.371-0.451s0.522-0.75,0.597-1.349H491.104z"/>
	<path fill="#FFFFFF" d="M493.154,216.493v3.166h-0.573v-7.001h2.372c0.751,0,1.327,0.165,1.728,0.493
		c0.401,0.329,0.602,0.809,0.602,1.441c0,0.372-0.107,0.705-0.322,0.998s-0.519,0.508-0.909,0.643
		c0.433,0.109,0.745,0.304,0.936,0.584s0.286,0.633,0.286,1.056v0.659c0,0.218,0.025,0.414,0.077,0.587
		c0.052,0.173,0.137,0.314,0.255,0.424v0.115h-0.587c-0.119-0.115-0.202-0.277-0.25-0.486s-0.072-0.425-0.072-0.65v-0.64
		c0-0.43-0.139-0.769-0.416-1.018s-0.665-0.373-1.162-0.373H493.154z M493.154,216.002h1.727c0.632,0,1.094-0.127,1.386-0.383
		c0.292-0.255,0.438-0.599,0.438-1.032c0-0.462-0.146-0.817-0.436-1.066s-0.729-0.373-1.316-0.373h-1.799V216.002z"/>
	<path fill="#FFFFFF" d="M503.026,216.267h-3.373v2.901h3.864v0.491h-4.437v-7.006h4.412v0.491h-3.84v2.632h3.373V216.267z"/>
	<path fill="#FFFFFF" d="M508.521,217.705h-3.209l-0.722,1.954h-0.597l2.66-7.006h0.544l2.642,7.006h-0.597L508.521,217.705z
		 M505.505,217.19h2.829l-1.396-3.792h-0.029L505.505,217.19z"/>
	<path fill="#FFFFFF" d="M514.921,217.938c0-0.381-0.143-0.693-0.428-0.935c-0.286-0.242-0.783-0.456-1.492-0.641
		c-0.767-0.192-1.347-0.443-1.741-0.75c-0.395-0.308-0.592-0.724-0.592-1.247c0-0.536,0.221-0.972,0.661-1.309
		c0.441-0.337,1.008-0.505,1.701-0.505c0.722,0,1.304,0.201,1.747,0.602c0.442,0.401,0.657,0.89,0.645,1.468l-0.015,0.029h-0.529
		c0-0.468-0.166-0.854-0.498-1.155c-0.332-0.302-0.782-0.452-1.35-0.452c-0.562,0-1,0.125-1.316,0.375
		c-0.315,0.25-0.474,0.562-0.474,0.934c0,0.353,0.146,0.647,0.438,0.883c0.292,0.236,0.796,0.443,1.512,0.623
		c0.753,0.192,1.327,0.453,1.72,0.78s0.59,0.758,0.59,1.294c0,0.558-0.229,1.002-0.687,1.333c-0.457,0.331-1.04,0.496-1.749,0.496
		c-0.699,0-1.31-0.176-1.83-0.527c-0.521-0.351-0.774-0.864-0.758-1.537l0.01-0.029h0.529c0,0.544,0.203,0.947,0.61,1.209
		s0.887,0.394,1.438,0.394c0.556,0,1.004-0.122,1.346-0.365C514.75,218.661,514.921,218.339,514.921,217.938z"/>
	<path fill="#FFFFFF" d="M520.781,216.267h-3.373v2.901h3.864v0.491h-4.437v-7.006h4.412v0.491h-3.84v2.632h3.373V216.267z"/>
	<path fill="#FFFFFF" d="M529.606,213.144h-2.411v6.515h-0.577v-6.515h-2.41v-0.491h5.398V213.144z"/>
	<path fill="#FFFFFF" d="M535.875,219.659h-0.572v-3.224h-3.984v3.224h-0.572v-7.006h0.572v3.292h3.984v-3.292h0.572V219.659z"/>
	<path fill="#FFFFFF" d="M541.659,216.267h-3.373v2.901h3.864v0.491h-4.437v-7.006h4.412v0.491h-3.84v2.632h3.373V216.267z"/>
	<path fill="#FFFFFF" d="M550.945,219.659h-0.572l-3.979-6.024l-0.029,0.004v6.02h-0.577v-7.006h0.577l3.979,6.015l0.029-0.005
		v-6.01h0.572V219.659z"/>
	<path fill="#FFFFFF" d="M557.682,212.653v4.749c0,0.764-0.233,1.348-0.7,1.751c-0.467,0.404-1.075,0.606-1.826,0.606
		c-0.741,0-1.341-0.203-1.8-0.609c-0.458-0.406-0.688-0.989-0.688-1.749v-4.749h0.577v4.746c0,0.596,0.177,1.057,0.529,1.382
		c0.353,0.326,0.813,0.488,1.381,0.488c0.577,0,1.048-0.162,1.41-0.486s0.543-0.785,0.543-1.385v-4.746H557.682z"/>
	<path fill="#FFFFFF" d="M560.15,212.653l2.574,6.168h0.028l2.584-6.168h0.76v7.006h-0.572v-3.094l0.048-3.065l-0.028-0.01
		l-2.604,6.168h-0.399l-2.598-6.14l-0.029,0.005l0.053,3.041v3.094h-0.572v-7.006H560.15z"/>
	<path fill="#FFFFFF" d="M567.936,219.659v-7.006h2.045c0.729,0,1.295,0.153,1.701,0.46c0.405,0.307,0.608,0.768,0.608,1.384
		c0,0.359-0.102,0.672-0.306,0.938c-0.203,0.267-0.48,0.451-0.83,0.554c0.427,0.077,0.773,0.277,1.04,0.601
		c0.266,0.324,0.398,0.698,0.398,1.121c0,0.625-0.202,1.106-0.608,1.443c-0.405,0.336-0.948,0.505-1.629,0.505H567.936z
		 M568.508,215.795h1.612c0.507,0,0.898-0.111,1.177-0.334c0.277-0.223,0.416-0.551,0.416-0.984c0-0.442-0.147-0.775-0.442-0.999
		c-0.296-0.223-0.726-0.334-1.29-0.334h-1.473V215.795z M568.508,216.286v2.882h1.848c0.517,0,0.923-0.127,1.218-0.381
		c0.295-0.254,0.442-0.61,0.442-1.067c0-0.419-0.134-0.763-0.401-1.031s-0.657-0.403-1.167-0.403H568.508z"/>
	<path fill="#FFFFFF" d="M577.986,216.267h-3.373v2.901h3.864v0.491h-4.437v-7.006h4.412v0.491h-3.84v2.632h3.373V216.267z"/>
	<path fill="#FFFFFF" d="M580.277,216.493v3.166h-0.573v-7.001h2.372c0.751,0,1.327,0.165,1.728,0.493
		c0.401,0.329,0.602,0.809,0.602,1.441c0,0.372-0.107,0.705-0.322,0.998s-0.519,0.508-0.909,0.643
		c0.433,0.109,0.745,0.304,0.936,0.584s0.286,0.633,0.286,1.056v0.659c0,0.218,0.025,0.414,0.077,0.587
		c0.052,0.173,0.137,0.314,0.255,0.424v0.115h-0.587c-0.119-0.115-0.202-0.277-0.25-0.486s-0.072-0.425-0.072-0.65v-0.64
		c0-0.43-0.139-0.769-0.416-1.018s-0.665-0.373-1.162-0.373H580.277z M580.277,216.002h1.727c0.632,0,1.094-0.127,1.386-0.383
		c0.292-0.255,0.438-0.599,0.438-1.032c0-0.462-0.146-0.817-0.436-1.066s-0.729-0.373-1.316-0.373h-1.799V216.002z"/>
	<path fill="#FFFFFF" d="M593.716,216.729c0,0.904-0.248,1.636-0.744,2.194c-0.495,0.558-1.16,0.837-1.994,0.837
		c-0.821,0-1.477-0.279-1.966-0.837s-0.733-1.29-0.733-2.194v-1.141c0-0.901,0.244-1.632,0.731-2.194s1.142-0.842,1.963-0.842
		c0.834,0,1.5,0.281,1.997,0.842s0.746,1.292,0.746,2.194V216.729z M593.143,215.583c0-0.758-0.191-1.369-0.575-1.832
		c-0.383-0.462-0.915-0.694-1.595-0.694c-0.667,0-1.187,0.231-1.559,0.694c-0.372,0.463-0.559,1.073-0.559,1.832v1.152
		c0,0.764,0.188,1.378,0.561,1.841c0.374,0.462,0.895,0.694,1.562,0.694c0.684,0,1.215-0.23,1.595-0.691
		c0.381-0.461,0.57-1.076,0.57-1.843V215.583z"/>
	<path fill="#FFFFFF" d="M599.211,216.373h-3.407v3.286h-0.572v-7.006h4.47v0.491h-3.897v2.738h3.407V216.373z"/>
	<path fill="#FFFFFF" d="M482.015,231.483h-1.4v-2.911h-2.857v2.911h-1.405v-7.006h1.405v3.012h2.857v-3.012h1.4V231.483z"/>
	<path fill="#FFFFFF" d="M487.086,229.973h-2.459l-0.476,1.511h-1.42l2.411-7.006h1.438l2.4,7.006h-1.419L487.086,229.973z
		 M484.974,228.871h1.766l-0.866-2.752h-0.028L484.974,228.871z"/>
	<path fill="#FFFFFF" d="M491.042,228.943v2.541h-1.405v-7.006h2.791c0.805,0,1.438,0.206,1.9,0.616s0.692,0.951,0.692,1.622
		s-0.23,1.209-0.692,1.617c-0.462,0.407-1.096,0.611-1.9,0.611H491.042z M491.042,227.86h1.386c0.391,0,0.688-0.106,0.89-0.32
		s0.304-0.485,0.304-0.816c0-0.337-0.101-0.615-0.301-0.834c-0.201-0.22-0.498-0.33-0.893-0.33h-1.386V227.86z"/>
	<path fill="#FFFFFF" d="M497.46,228.943v2.541h-1.405v-7.006h2.791c0.805,0,1.438,0.206,1.9,0.616s0.692,0.951,0.692,1.622
		s-0.23,1.209-0.692,1.617c-0.462,0.407-1.096,0.611-1.9,0.611H497.46z M497.46,227.86h1.386c0.391,0,0.688-0.106,0.89-0.32
		s0.304-0.485,0.304-0.816c0-0.337-0.101-0.615-0.301-0.834c-0.201-0.22-0.498-0.33-0.893-0.33h-1.386V227.86z"/>
	<path fill="#FFFFFF" d="M504.913,227.707h0.029l1.529-3.229h1.54l-2.405,4.542v2.463h-1.4v-2.536l-2.362-4.47h1.539
		L504.913,227.707z"/>
	<path fill="#FFFFFF" d="M516.433,229.097l0.01,0.029c0.013,0.754-0.218,1.352-0.69,1.795c-0.474,0.443-1.13,0.664-1.971,0.664
		c-0.844,0-1.528-0.271-2.055-0.813c-0.525-0.542-0.789-1.24-0.789-2.093v-1.391c0-0.85,0.257-1.547,0.771-2.093
		c0.513-0.545,1.18-0.818,2.001-0.818c0.866,0,1.543,0.222,2.03,0.667c0.488,0.444,0.726,1.05,0.713,1.816l-0.01,0.029h-1.367
		c0-0.462-0.11-0.815-0.331-1.061c-0.222-0.245-0.566-0.368-1.035-0.368c-0.42,0-0.754,0.17-1.001,0.512s-0.37,0.776-0.37,1.305
		v1.399c0,0.535,0.13,0.973,0.39,1.314s0.611,0.512,1.054,0.512c0.439,0,0.765-0.118,0.975-0.354
		c0.21-0.235,0.315-0.586,0.315-1.051H516.433z"/>
	<path fill="#FFFFFF" d="M522.985,224.478v4.648c0,0.786-0.26,1.393-0.779,1.819c-0.52,0.427-1.2,0.64-2.04,0.64
		c-0.838,0-1.514-0.213-2.028-0.64c-0.515-0.426-0.772-1.033-0.772-1.819v-4.648h1.41v4.645c0,0.461,0.123,0.807,0.37,1.036
		s0.587,0.344,1.021,0.344c0.439,0,0.784-0.114,1.034-0.341s0.375-0.574,0.375-1.039v-4.645H522.985z"/>
	<path fill="#FFFFFF" d="M527.994,229.655c0-0.269-0.096-0.486-0.286-0.649c-0.191-0.164-0.525-0.317-1.004-0.462
		c-0.834-0.241-1.464-0.526-1.891-0.856c-0.427-0.33-0.64-0.783-0.64-1.357s0.244-1.043,0.733-1.407s1.114-0.546,1.874-0.546
		c0.77,0,1.397,0.205,1.882,0.614c0.484,0.409,0.718,0.914,0.702,1.513l-0.01,0.029h-1.361c0-0.324-0.108-0.586-0.325-0.787
		s-0.521-0.301-0.912-0.301c-0.375,0-0.665,0.083-0.87,0.25c-0.206,0.167-0.309,0.38-0.309,0.64c0,0.237,0.11,0.432,0.33,0.584
		s0.599,0.314,1.138,0.484c0.773,0.215,1.358,0.499,1.756,0.852c0.398,0.353,0.597,0.816,0.597,1.391c0,0.6-0.236,1.073-0.709,1.419
		c-0.474,0.346-1.099,0.52-1.874,0.52c-0.764,0-1.43-0.196-1.997-0.589c-0.568-0.393-0.844-0.944-0.828-1.653l0.01-0.029h1.367
		c0,0.417,0.127,0.723,0.382,0.917c0.255,0.194,0.61,0.291,1.066,0.291c0.381,0,0.673-0.079,0.875-0.236
		C527.893,230.128,527.994,229.918,527.994,229.655z"/>
	<path fill="#FFFFFF" d="M535.304,225.561h-1.982v5.923h-1.405v-5.923h-1.973v-1.083h5.36V225.561z"/>
	<path fill="#FFFFFF" d="M541.563,228.611c0,0.86-0.272,1.57-0.815,2.131c-0.544,0.562-1.251,0.842-2.12,0.842
		c-0.862,0-1.563-0.281-2.103-0.842c-0.539-0.561-0.809-1.271-0.809-2.131v-1.261c0-0.856,0.269-1.566,0.807-2.129
		c0.537-0.563,1.237-0.845,2.1-0.845c0.869,0,1.577,0.282,2.122,0.845s0.818,1.272,0.818,2.129V228.611z M540.158,227.344
		c0-0.546-0.137-0.995-0.409-1.345c-0.272-0.35-0.647-0.525-1.126-0.525c-0.478,0-0.849,0.174-1.111,0.523
		c-0.263,0.349-0.395,0.797-0.395,1.347v1.272c0,0.556,0.133,1.009,0.399,1.36c0.267,0.35,0.637,0.525,1.111,0.525
		c0.481,0,0.856-0.175,1.126-0.525c0.27-0.351,0.404-0.804,0.404-1.36V227.344z"/>
	<path fill="#FFFFFF" d="M544.493,224.478l1.785,5.163h0.029l1.8-5.163h1.838v7.006h-1.405v-2.088l0.135-3.094l-0.029-0.005
		l-1.876,5.187h-0.943l-1.867-5.167l-0.028,0.005l0.135,3.074v2.088h-1.405v-7.006H544.493z"/>
	<path fill="#FFFFFF" d="M555.564,228.404h-2.901v1.997h3.392v1.083h-4.797v-7.006h4.788v1.083h-3.383v1.761h2.901V228.404z"/>
	<path fill="#FFFFFF" d="M558.322,228.683v2.8h-1.405v-7.006h2.642c0.799,0,1.424,0.182,1.874,0.546
		c0.451,0.364,0.676,0.872,0.676,1.523c0,0.362-0.095,0.673-0.283,0.933c-0.189,0.26-0.467,0.47-0.833,0.63
		c0.414,0.122,0.712,0.326,0.893,0.611c0.182,0.286,0.272,0.638,0.272,1.059v0.515c0,0.196,0.026,0.4,0.079,0.613
		c0.053,0.213,0.144,0.372,0.271,0.474v0.101h-1.448c-0.128-0.103-0.212-0.274-0.25-0.515c-0.038-0.241-0.058-0.468-0.058-0.684
		v-0.496c0-0.35-0.096-0.621-0.286-0.815c-0.191-0.194-0.46-0.291-0.806-0.291H558.322z M558.322,227.601h1.212
		c0.395,0,0.689-0.083,0.884-0.25c0.193-0.167,0.291-0.414,0.291-0.741c0-0.321-0.098-0.576-0.291-0.765
		c-0.194-0.189-0.48-0.284-0.859-0.284h-1.236V227.601z"/>
	<path fill="#FFFFFF" d="M567.214,229.655c0-0.269-0.096-0.486-0.286-0.649c-0.191-0.164-0.525-0.317-1.004-0.462
		c-0.834-0.241-1.464-0.526-1.891-0.856c-0.427-0.33-0.64-0.783-0.64-1.357s0.244-1.043,0.733-1.407s1.114-0.546,1.874-0.546
		c0.77,0,1.397,0.205,1.882,0.614c0.484,0.409,0.718,0.914,0.702,1.513l-0.01,0.029h-1.361c0-0.324-0.108-0.586-0.325-0.787
		s-0.521-0.301-0.912-0.301c-0.375,0-0.665,0.083-0.87,0.25c-0.206,0.167-0.309,0.38-0.309,0.64c0,0.237,0.11,0.432,0.33,0.584
		s0.599,0.314,1.138,0.484c0.773,0.215,1.358,0.499,1.756,0.852c0.398,0.353,0.597,0.816,0.597,1.391c0,0.6-0.236,1.073-0.709,1.419
		c-0.474,0.346-1.099,0.52-1.874,0.52c-0.764,0-1.43-0.196-1.997-0.589c-0.568-0.393-0.844-0.944-0.828-1.653l0.01-0.029h1.367
		c0,0.417,0.127,0.723,0.382,0.917c0.255,0.194,0.61,0.291,1.066,0.291c0.381,0,0.673-0.079,0.875-0.236
		C567.112,230.128,567.214,229.918,567.214,229.655z"/>
</g>
<g>
	<path fill="#ED433B" d="M677.41,300.749h0.024l1.274-2.69h1.283l-2.005,3.785v2.053h-1.166v-2.113l-1.969-3.725h1.282
		L677.41,300.749z"/>
	<path fill="#ED433B" d="M685.116,301.503c0,0.716-0.227,1.309-0.68,1.776s-1.041,0.701-1.766,0.701
		c-0.72,0-1.304-0.233-1.752-0.701c-0.449-0.468-0.674-1.061-0.674-1.776v-1.051c0-0.714,0.224-1.305,0.671-1.774
		c0.448-0.469,1.031-0.704,1.751-0.704c0.724,0,1.313,0.235,1.768,0.704c0.455,0.469,0.682,1.061,0.682,1.774V301.503z
		 M683.945,300.447c0-0.456-0.113-0.829-0.341-1.121c-0.227-0.292-0.539-0.438-0.938-0.438s-0.707,0.145-0.927,0.436
		c-0.219,0.291-0.328,0.665-0.328,1.123v1.061c0,0.463,0.11,0.841,0.332,1.133c0.223,0.292,0.531,0.438,0.927,0.438
		c0.4,0,0.714-0.146,0.938-0.438c0.224-0.292,0.336-0.67,0.336-1.133V300.447z"/>
	<path fill="#ED433B" d="M690.649,298.059v3.873c0,0.655-0.216,1.16-0.649,1.516c-0.433,0.355-1,0.533-1.7,0.533
		c-0.697,0-1.261-0.178-1.689-0.533c-0.43-0.355-0.644-0.86-0.644-1.516v-3.873h1.175v3.87c0,0.385,0.103,0.673,0.309,0.863
		c0.206,0.191,0.489,0.286,0.85,0.286c0.366,0,0.654-0.095,0.862-0.284c0.209-0.189,0.313-0.478,0.313-0.865v-3.87H690.649z"/>
	<path fill="#ED433B" d="M692.843,301.563v2.334h-1.171v-5.838h2.202c0.665,0,1.186,0.151,1.562,0.455
		c0.375,0.303,0.563,0.726,0.563,1.269c0,0.302-0.079,0.561-0.237,0.778c-0.157,0.216-0.389,0.392-0.693,0.525
		c0.345,0.102,0.593,0.271,0.744,0.509c0.15,0.238,0.227,0.532,0.227,0.883v0.429c0,0.163,0.021,0.333,0.065,0.511
		c0.045,0.178,0.12,0.31,0.227,0.396v0.084h-1.206c-0.107-0.086-0.177-0.229-0.209-0.429c-0.032-0.201-0.048-0.391-0.048-0.569
		v-0.413c0-0.292-0.08-0.519-0.239-0.68c-0.158-0.162-0.383-0.243-0.671-0.243H692.843z M692.843,300.661h1.011
		c0.329,0,0.574-0.069,0.735-0.208c0.162-0.139,0.243-0.345,0.243-0.617c0-0.268-0.081-0.48-0.243-0.638
		c-0.161-0.158-0.4-0.237-0.715-0.237h-1.031V300.661z"/>
	<path fill="#ED433B" d="M675.377,313.751v-5.838h1.973c0.688,0,1.224,0.134,1.608,0.4c0.385,0.268,0.577,0.667,0.577,1.199
		c0,0.271-0.071,0.512-0.214,0.724c-0.144,0.213-0.352,0.372-0.624,0.479c0.351,0.075,0.613,0.235,0.788,0.481
		c0.175,0.245,0.263,0.53,0.263,0.854c0,0.559-0.185,0.981-0.554,1.27c-0.369,0.287-0.892,0.431-1.567,0.431H675.377z
		 M676.548,310.358h0.843c0.313,0,0.553-0.063,0.722-0.192c0.168-0.128,0.252-0.315,0.252-0.561c0-0.271-0.085-0.47-0.254-0.598
		c-0.17-0.129-0.424-0.192-0.761-0.192h-0.802V310.358z M676.548,311.169v1.68h1.079c0.31,0,0.547-0.067,0.71-0.202
		c0.162-0.135,0.244-0.334,0.244-0.598c0-0.285-0.069-0.503-0.209-0.654c-0.139-0.15-0.357-0.226-0.657-0.226H676.548z"/>
	<path fill="#ED433B" d="M685.265,307.913v3.873c0,0.655-0.216,1.16-0.649,1.516c-0.433,0.355-1,0.533-1.7,0.533
		c-0.697,0-1.261-0.178-1.689-0.533c-0.43-0.355-0.644-0.86-0.644-1.516v-3.873h1.175v3.87c0,0.385,0.103,0.673,0.309,0.863
		c0.206,0.191,0.489,0.286,0.85,0.286c0.366,0,0.654-0.095,0.862-0.284c0.209-0.189,0.313-0.478,0.313-0.865v-3.87H685.265z"/>
	<path fill="#ED433B" d="M689.439,312.228c0-0.225-0.08-0.405-0.239-0.542c-0.159-0.136-0.438-0.265-0.836-0.385
		c-0.694-0.2-1.22-0.438-1.575-0.714c-0.355-0.274-0.533-0.651-0.533-1.13s0.203-0.87,0.611-1.173
		c0.407-0.304,0.928-0.455,1.562-0.455c0.642,0,1.164,0.17,1.567,0.511c0.404,0.341,0.599,0.762,0.586,1.261l-0.008,0.024h-1.135
		c0-0.27-0.091-0.488-0.271-0.655c-0.18-0.167-0.434-0.251-0.76-0.251c-0.313,0-0.555,0.069-0.726,0.209
		c-0.171,0.139-0.257,0.316-0.257,0.533c0,0.197,0.092,0.36,0.275,0.487c0.183,0.127,0.499,0.261,0.948,0.402
		c0.644,0.18,1.132,0.416,1.463,0.71c0.332,0.294,0.498,0.681,0.498,1.159c0,0.499-0.197,0.894-0.592,1.183
		c-0.395,0.288-0.915,0.433-1.562,0.433c-0.637,0-1.191-0.163-1.664-0.491c-0.474-0.327-0.703-0.786-0.689-1.377l0.008-0.024h1.139
		c0,0.348,0.106,0.603,0.318,0.764c0.213,0.162,0.509,0.243,0.889,0.243c0.317,0,0.561-0.065,0.729-0.196
		C689.354,312.622,689.439,312.446,689.439,312.228z"/>
	<path fill="#ED433B" d="M692.739,313.751h-1.171v-5.838h1.171V313.751z"/>
	<path fill="#ED433B" d="M698.625,313.751h-1.167l-2.357-3.989l-0.024,0.004v3.985h-1.171v-5.838h1.171l2.358,3.985l0.023-0.004
		v-3.981h1.167V313.751z"/>
	<path fill="#ED433B" d="M703.309,311.185h-2.418v1.664h2.827v0.902h-3.998v-5.838h3.99v0.902h-2.819v1.467h2.418V311.185z"/>
	<path fill="#ED433B" d="M707.587,312.228c0-0.225-0.08-0.405-0.239-0.542c-0.159-0.136-0.438-0.265-0.836-0.385
		c-0.694-0.2-1.22-0.438-1.575-0.714c-0.355-0.274-0.533-0.651-0.533-1.13s0.203-0.87,0.611-1.173
		c0.407-0.304,0.928-0.455,1.562-0.455c0.642,0,1.164,0.17,1.567,0.511c0.404,0.341,0.599,0.762,0.586,1.261l-0.008,0.024h-1.135
		c0-0.27-0.091-0.488-0.271-0.655c-0.18-0.167-0.434-0.251-0.76-0.251c-0.313,0-0.555,0.069-0.726,0.209
		c-0.171,0.139-0.257,0.316-0.257,0.533c0,0.197,0.092,0.36,0.275,0.487c0.183,0.127,0.499,0.261,0.948,0.402
		c0.644,0.18,1.132,0.416,1.463,0.71c0.332,0.294,0.498,0.681,0.498,1.159c0,0.499-0.197,0.894-0.592,1.183
		c-0.395,0.288-0.915,0.433-1.562,0.433c-0.637,0-1.191-0.163-1.664-0.491c-0.474-0.327-0.703-0.786-0.689-1.377l0.008-0.024h1.139
		c0,0.348,0.106,0.603,0.318,0.764c0.213,0.162,0.509,0.243,0.889,0.243c0.317,0,0.561-0.065,0.729-0.196
		C707.502,312.622,707.587,312.446,707.587,312.228z"/>
	<path fill="#ED433B" d="M712.796,312.228c0-0.225-0.08-0.405-0.239-0.542c-0.159-0.136-0.438-0.265-0.836-0.385
		c-0.694-0.2-1.22-0.438-1.575-0.714c-0.355-0.274-0.533-0.651-0.533-1.13s0.203-0.87,0.611-1.173
		c0.407-0.304,0.928-0.455,1.562-0.455c0.642,0,1.164,0.17,1.567,0.511c0.404,0.341,0.599,0.762,0.586,1.261l-0.008,0.024h-1.135
		c0-0.27-0.091-0.488-0.271-0.655c-0.18-0.167-0.434-0.251-0.76-0.251c-0.313,0-0.555,0.069-0.726,0.209
		c-0.171,0.139-0.257,0.316-0.257,0.533c0,0.197,0.092,0.36,0.275,0.487c0.183,0.127,0.499,0.261,0.948,0.402
		c0.644,0.18,1.132,0.416,1.463,0.71c0.332,0.294,0.498,0.681,0.498,1.159c0,0.499-0.197,0.894-0.592,1.183
		c-0.395,0.288-0.915,0.433-1.562,0.433c-0.637,0-1.191-0.163-1.664-0.491c-0.474-0.327-0.703-0.786-0.689-1.377l0.008-0.024h1.139
		c0,0.348,0.106,0.603,0.318,0.764c0.213,0.162,0.509,0.243,0.889,0.243c0.317,0,0.561-0.065,0.729-0.196
		C712.711,312.622,712.796,312.446,712.796,312.228z"/>
	<path fill="#ED433B" d="M715.762,308.273l-0.649,1.403h-0.577l0.24-1.399v-0.781h0.986V308.273z"/>
	<path fill="#ED433B" d="M677.358,322.053l0.072,0.316h0.023l0.068-0.309l1.271-4.294h1.234l-1.984,5.838h-1.203l-1.98-5.838h1.234
		L677.358,322.053z"/>
	<path fill="#ED433B" d="M683.168,322.346h-2.049l-0.396,1.259h-1.184l2.009-5.838h1.199l2.001,5.838h-1.183L683.168,322.346z
		 M681.408,321.428h1.471l-0.722-2.294h-0.023L681.408,321.428z"/>
	<path fill="#ED433B" d="M686.464,322.702h2.599v0.902h-3.77v-5.838h1.171V322.702z"/>
	<path fill="#ED433B" d="M694.242,317.767v3.873c0,0.655-0.216,1.16-0.649,1.516c-0.433,0.355-1,0.533-1.7,0.533
		c-0.697,0-1.261-0.178-1.689-0.533c-0.43-0.355-0.644-0.86-0.644-1.516v-3.873h1.175v3.87c0,0.385,0.103,0.673,0.309,0.863
		c0.206,0.191,0.489,0.286,0.85,0.286c0.366,0,0.654-0.095,0.862-0.284c0.209-0.189,0.313-0.478,0.313-0.865v-3.87H694.242z"/>
	<path fill="#ED433B" d="M698.854,321.038h-2.418v1.664h2.827v0.902h-3.998v-5.838h3.99v0.902h-2.819v1.467h2.418V321.038z"/>
</g>
<g>
	<path fill="#FFFFFF" d="M680.582,461.361c0-0.225-0.08-0.405-0.239-0.542c-0.159-0.136-0.438-0.265-0.836-0.385
		c-0.694-0.2-1.22-0.438-1.575-0.714c-0.355-0.274-0.533-0.651-0.533-1.13s0.203-0.87,0.611-1.173
		c0.407-0.304,0.928-0.455,1.562-0.455c0.642,0,1.164,0.17,1.567,0.511c0.404,0.341,0.599,0.762,0.586,1.261l-0.008,0.024h-1.135
		c0-0.27-0.091-0.488-0.271-0.655c-0.18-0.167-0.434-0.251-0.76-0.251c-0.313,0-0.555,0.069-0.726,0.209
		c-0.171,0.139-0.257,0.316-0.257,0.533c0,0.197,0.092,0.36,0.275,0.487c0.183,0.127,0.499,0.261,0.948,0.402
		c0.644,0.18,1.132,0.416,1.463,0.71c0.332,0.294,0.498,0.681,0.498,1.159c0,0.499-0.197,0.894-0.592,1.183
		c-0.395,0.288-0.915,0.433-1.562,0.433c-0.637,0-1.191-0.163-1.664-0.491c-0.474-0.327-0.703-0.786-0.689-1.377l0.008-0.024h1.139
		c0,0.348,0.106,0.603,0.318,0.764c0.213,0.162,0.509,0.243,0.889,0.243c0.317,0,0.561-0.065,0.729-0.196
		C680.497,461.756,680.582,461.58,680.582,461.361z"/>
	<path fill="#FFFFFF" d="M686.673,457.949h-1.652v4.936h-1.171v-4.936h-1.644v-0.902h4.467V457.949z"/>
	<path fill="#FFFFFF" d="M690.057,461.626h-2.049l-0.396,1.259h-1.184l2.009-5.838h1.199l2.001,5.838h-1.183L690.057,461.626z
		 M688.297,460.708h1.471l-0.722-2.294h-0.023L688.297,460.708z"/>
	<path fill="#FFFFFF" d="M693.352,460.551v2.334h-1.171v-5.838h2.202c0.665,0,1.186,0.151,1.562,0.455
		c0.375,0.304,0.563,0.727,0.563,1.269c0,0.303-0.079,0.562-0.237,0.778c-0.157,0.217-0.389,0.392-0.693,0.525
		c0.345,0.102,0.593,0.271,0.744,0.509c0.15,0.238,0.227,0.532,0.227,0.883v0.429c0,0.163,0.021,0.333,0.065,0.511
		c0.045,0.178,0.12,0.31,0.227,0.396v0.084h-1.206c-0.107-0.086-0.177-0.229-0.209-0.429c-0.032-0.201-0.048-0.391-0.048-0.569
		v-0.413c0-0.292-0.08-0.519-0.239-0.68c-0.158-0.162-0.383-0.243-0.671-0.243H693.352z M693.352,459.649h1.011
		c0.329,0,0.574-0.07,0.735-0.209c0.162-0.139,0.243-0.345,0.243-0.617c0-0.268-0.081-0.48-0.243-0.638
		c-0.161-0.158-0.4-0.236-0.715-0.236h-1.031V459.649z"/>
	<path fill="#FFFFFF" d="M701.52,457.949h-1.652v4.936h-1.171v-4.936h-1.644v-0.902h4.467V457.949z"/>
	<path fill="#FFFFFF" d="M703.416,462.885h-1.171v-5.838h1.171V462.885z"/>
	<path fill="#FFFFFF" d="M709.303,462.885h-1.167l-2.357-3.989l-0.024,0.004v3.985h-1.171v-5.838h1.171l2.358,3.985l0.023-0.004
		v-3.981h1.167V462.885z"/>
	<path fill="#FFFFFF" d="M714.88,462.087c-0.174,0.229-0.444,0.435-0.813,0.613c-0.367,0.18-0.832,0.269-1.393,0.269
		c-0.714,0-1.297-0.222-1.749-0.665c-0.451-0.444-0.678-1.021-0.678-1.729v-1.219c0-0.706,0.218-1.281,0.652-1.727
		c0.434-0.444,0.993-0.667,1.678-0.667c0.711,0,1.256,0.173,1.634,0.519c0.378,0.347,0.571,0.802,0.579,1.365l-0.008,0.024h-1.103
		c-0.021-0.31-0.12-0.556-0.297-0.735c-0.176-0.181-0.435-0.271-0.773-0.271c-0.358,0-0.647,0.139-0.866,0.415
		c-0.22,0.276-0.329,0.632-0.329,1.067v1.226c0,0.443,0.114,0.804,0.341,1.08c0.228,0.276,0.533,0.414,0.919,0.414
		c0.272,0,0.491-0.027,0.657-0.084c0.166-0.056,0.291-0.125,0.377-0.207v-1.08h-1.034v-0.81h2.205V462.087z"/>
	<path fill="#FFFFFF" d="M678.601,471.837h2.599v0.902h-3.77v-5.838h1.171V471.837z"/>
	<path fill="#FFFFFF" d="M685.461,470.173h-2.418v1.664h2.827v0.902h-3.998v-5.838h3.99v0.902h-2.819v1.467h2.418V470.173z"/>
	<path fill="#FFFFFF" d="M688.569,471.188l0.072,0.316h0.023l0.068-0.309l1.271-4.294h1.234l-1.984,5.838h-1.203l-1.98-5.838h1.234
		L688.569,471.188z"/>
	<path fill="#FFFFFF" d="M695.401,470.173h-2.418v1.664h2.827v0.902h-3.998v-5.838h3.99v0.902h-2.819v1.467h2.418V470.173z"/>
	<path fill="#FFFFFF" d="M697.698,471.837h2.599v0.902h-3.77v-5.838h1.171V471.837z"/>
</g>
<g>
	<path fill="#ED433B" d="M161.922,525.067h0.028l0.973-4.669h1.333l-1.59,6.812h-1.268l-1.249-4.495h-0.028l-1.249,4.495h-1.268
		l-1.595-6.812h1.338l0.978,4.664l0.028,0.005l1.277-4.669h1.006L161.922,525.067z"/>
	<path fill="#ED433B" d="M166.473,527.21h-1.366v-6.812h1.366V527.21z"/>
	<path fill="#ED433B" d="M172.541,521.451h-1.927v5.759h-1.366v-5.759h-1.918v-1.053h5.211V521.451z"/>
	<path fill="#ED433B" d="M178.809,527.21h-1.361v-2.83h-2.779v2.83h-1.366v-6.812h1.366v2.929h2.779v-2.929h1.361V527.21z"/>
	<path fill="#ED433B" d="M187.861,520.398v4.52c0,0.764-0.253,1.354-0.758,1.768c-0.505,0.415-1.166,0.623-1.983,0.623
		c-0.814,0-1.471-0.208-1.972-0.623c-0.5-0.414-0.75-1.004-0.75-1.768v-4.52h1.371v4.516c0,0.449,0.12,0.784,0.36,1.008
		c0.24,0.223,0.571,0.334,0.992,0.334c0.427,0,0.763-0.11,1.006-0.332s0.365-0.558,0.365-1.01v-4.516H187.861z"/>
	<path fill="#ED433B" d="M192.73,525.433c0-0.263-0.093-0.473-0.278-0.632s-0.511-0.309-0.975-0.449
		c-0.811-0.233-1.424-0.512-1.839-0.832c-0.415-0.321-0.622-0.762-0.622-1.319c0-0.559,0.238-1.015,0.713-1.368
		c0.476-0.354,1.083-0.531,1.822-0.531c0.749,0,1.358,0.198,1.829,0.597c0.471,0.397,0.698,0.888,0.683,1.471l-0.009,0.028h-1.324
		c0-0.315-0.105-0.57-0.316-0.765c-0.21-0.195-0.506-0.293-0.886-0.293c-0.365,0-0.647,0.081-0.847,0.243s-0.299,0.37-0.299,0.623
		c0,0.23,0.106,0.42,0.32,0.568c0.213,0.147,0.583,0.305,1.106,0.47c0.751,0.209,1.321,0.485,1.708,0.828
		c0.386,0.343,0.58,0.794,0.58,1.352c0,0.583-0.23,1.043-0.69,1.38s-1.067,0.506-1.822,0.506c-0.742,0-1.389-0.191-1.941-0.573
		c-0.552-0.382-0.82-0.918-0.805-1.607l0.009-0.027h1.329c0,0.405,0.124,0.702,0.372,0.891s0.593,0.283,1.036,0.283
		c0.371,0,0.655-0.076,0.852-0.229C192.632,525.893,192.73,525.688,192.73,525.433z"/>
	<path fill="#FFFFFF" d="M161.922,536.563h0.028l0.973-4.669h1.333l-1.59,6.812h-1.268l-1.249-4.495h-0.028l-1.249,4.495h-1.268
		l-1.595-6.812h1.338l0.978,4.664l0.028,0.005l1.277-4.669h1.006L161.922,536.563z"/>
	<path fill="#FFFFFF" d="M166.473,538.706h-1.366v-6.812h1.366V538.706z"/>
	<path fill="#FFFFFF" d="M172.541,532.947h-1.927v5.759h-1.366v-5.759h-1.918v-1.053h5.211V532.947z"/>
	<path fill="#FFFFFF" d="M178.809,538.706h-1.361v-2.83h-2.779v2.83h-1.366v-6.812h1.366v2.929h2.779v-2.929h1.361V538.706z"/>
	<path fill="#FFFFFF" d="M185.564,535.913c0,0.836-0.265,1.527-0.793,2.072c-0.529,0.546-1.216,0.819-2.061,0.819
		c-0.839,0-1.521-0.273-2.044-0.819c-0.524-0.545-0.786-1.236-0.786-2.072v-1.226c0-0.832,0.261-1.522,0.784-2.069
		c0.522-0.548,1.203-0.821,2.042-0.821c0.845,0,1.533,0.273,2.063,0.821c0.53,0.547,0.795,1.237,0.795,2.069V535.913z
		 M184.198,534.682c0-0.531-0.132-0.967-0.397-1.308s-0.63-0.511-1.095-0.511s-0.825,0.17-1.081,0.509
		c-0.256,0.339-0.384,0.775-0.384,1.31v1.237c0,0.541,0.129,0.981,0.388,1.322c0.259,0.34,0.619,0.511,1.081,0.511
		c0.468,0,0.833-0.171,1.094-0.511c0.262-0.341,0.393-0.781,0.393-1.322V534.682z"/>
	<path fill="#FFFFFF" d="M192.02,531.895v4.52c0,0.764-0.253,1.354-0.758,1.768c-0.505,0.415-1.166,0.623-1.983,0.623
		c-0.814,0-1.471-0.208-1.972-0.623c-0.5-0.414-0.75-1.004-0.75-1.768v-4.52h1.371v4.516c0,0.449,0.12,0.784,0.36,1.008
		c0.24,0.223,0.571,0.334,0.992,0.334c0.427,0,0.763-0.11,1.006-0.332s0.365-0.558,0.365-1.01v-4.516H192.02z"/>
	<path fill="#FFFFFF" d="M197.918,532.947h-1.927v5.759h-1.366v-5.759h-1.918v-1.053h5.211V532.947z"/>
	<path fill="#FFFFFF" d="M206.456,531.895v4.52c0,0.764-0.253,1.354-0.758,1.768c-0.505,0.415-1.166,0.623-1.983,0.623
		c-0.814,0-1.471-0.208-1.972-0.623c-0.5-0.414-0.75-1.004-0.75-1.768v-4.52h1.371v4.516c0,0.449,0.12,0.784,0.36,1.008
		c0.24,0.223,0.571,0.334,0.992,0.334c0.427,0,0.763-0.11,1.006-0.332s0.365-0.558,0.365-1.01v-4.516H206.456z"/>
	<path fill="#FFFFFF" d="M211.325,536.929c0-0.263-0.093-0.473-0.278-0.632s-0.511-0.309-0.975-0.449
		c-0.811-0.233-1.424-0.512-1.839-0.832c-0.415-0.321-0.622-0.762-0.622-1.319c0-0.559,0.238-1.015,0.713-1.368
		c0.476-0.354,1.083-0.531,1.822-0.531c0.749,0,1.358,0.198,1.829,0.597c0.471,0.397,0.698,0.888,0.683,1.471l-0.009,0.028h-1.324
		c0-0.315-0.105-0.57-0.316-0.765c-0.21-0.195-0.506-0.293-0.886-0.293c-0.365,0-0.647,0.081-0.847,0.243s-0.299,0.37-0.299,0.623
		c0,0.23,0.106,0.42,0.32,0.568c0.213,0.147,0.583,0.305,1.106,0.47c0.751,0.209,1.321,0.485,1.708,0.828
		c0.386,0.343,0.58,0.794,0.58,1.352c0,0.583-0.23,1.043-0.69,1.38s-1.067,0.506-1.822,0.506c-0.742,0-1.389-0.191-1.941-0.573
		c-0.552-0.382-0.82-0.918-0.805-1.607l0.009-0.027h1.329c0,0.405,0.124,0.702,0.372,0.891s0.593,0.283,1.036,0.283
		c0.371,0,0.655-0.076,0.852-0.229C211.227,537.389,211.325,537.185,211.325,536.929z"/>
</g>
<g>
	<path fill="#FFFFFF" d="M260.159,352.941v-0.641h0.767v0.641H260.159z"/>
	<path fill="#FFFFFF" d="M260.159,355.229v-0.641h0.767v0.641H260.159z"/>
	<path fill="#FFFFFF" d="M260.159,357.517v-0.641h0.767v0.641H260.159z"/>
	<path fill="#FFFFFF" d="M260.159,359.804v-0.641h0.767v0.641H260.159z"/>
	<path fill="#FFFFFF" d="M260.159,362.092v-0.641h0.767v0.641H260.159z"/>
	<path fill="#FFFFFF" d="M260.159,364.379v-0.641h0.767v0.641H260.159z"/>
	<path fill="#FFFFFF" d="M260.159,366.666v-0.641h0.767v0.641H260.159z"/>
	<path fill="#FFFFFF" d="M260.159,368.954v-0.641h0.767v0.641H260.159z"/>
	<path fill="#FFFFFF" d="M260.159,371.241v-0.641h0.767v0.641H260.159z"/>
	<path fill="#FFFFFF" d="M260.159,373.529v-0.641h0.767v0.641H260.159z"/>
	<path fill="#FFFFFF" d="M260.159,375.816v-0.641h0.767v0.641H260.159z"/>
	<path fill="#FFFFFF" d="M260.159,378.104v-0.641h0.767v0.641H260.159z"/>
	<path fill="#FFFFFF" d="M260.159,380.392v-0.641h0.767v0.641H260.159z"/>
	<path fill="#FFFFFF" d="M260.159,382.679v-0.641h0.767v0.641H260.159z"/>
	<path fill="#FFFFFF" d="M260.159,384.966v-0.641h0.767v0.641H260.159z"/>
	<path fill="#FFFFFF" d="M260.159,387.254v-0.641h0.767v0.641H260.159z"/>
	<path fill="#FFFFFF" d="M260.159,389.541V388.9h0.767v0.641H260.159z"/>
	<path fill="#FFFFFF" d="M260.159,391.829v-0.641h0.767v0.641H260.159z"/>
	<path fill="#FFFFFF" d="M260.159,394.116v-0.641h0.767v0.641H260.159z"/>
	<path fill="#FFFFFF" d="M260.159,396.403v-0.641h0.767v0.641H260.159z"/>
	<path fill="#FFFFFF" d="M260.159,398.691v-0.641h0.767v0.641H260.159z"/>
	<path fill="#FFFFFF" d="M260.159,400.979v-0.641h0.767v0.641H260.159z"/>
	<path fill="#FFFFFF" d="M260.159,403.267v-0.641h0.767v0.641H260.159z"/>
	<path fill="#FFFFFF" d="M260.159,405.554v-0.641h0.767v0.641H260.159z"/>
	<path fill="#FFFFFF" d="M260.159,407.841V407.2h0.767v0.641H260.159z"/>
	<path fill="#FFFFFF" d="M260.159,410.129v-0.641h0.767v0.641H260.159z"/>
	<path fill="#FFFFFF" d="M260.159,412.416v-0.641h0.767v0.641H260.159z"/>
	<path fill="#FFFFFF" d="M260.159,414.704v-0.641h0.767v0.641H260.159z"/>
</g>
<g>
	<path fill="#FFFFFF" d="M365.543,311.318v-0.641h0.767v0.641H365.543z"/>
	<path fill="#FFFFFF" d="M365.543,313.605v-0.641h0.767v0.641H365.543z"/>
	<path fill="#FFFFFF" d="M365.543,315.894v-0.641h0.767v0.641H365.543z"/>
	<path fill="#FFFFFF" d="M365.543,318.181v-0.641h0.767v0.641H365.543z"/>
	<path fill="#FFFFFF" d="M365.543,320.469v-0.641h0.767v0.641H365.543z"/>
	<path fill="#FFFFFF" d="M365.543,322.756v-0.641h0.767v0.641H365.543z"/>
	<path fill="#FFFFFF" d="M365.543,325.043v-0.641h0.767v0.641H365.543z"/>
	<path fill="#FFFFFF" d="M365.543,327.331v-0.641h0.767v0.641H365.543z"/>
	<path fill="#FFFFFF" d="M365.543,329.618v-0.641h0.767v0.641H365.543z"/>
	<path fill="#FFFFFF" d="M365.543,331.906v-0.641h0.767v0.641H365.543z"/>
	<path fill="#FFFFFF" d="M365.543,334.193v-0.641h0.767v0.641H365.543z"/>
	<path fill="#FFFFFF" d="M365.543,336.48v-0.641h0.767v0.641H365.543z"/>
	<path fill="#FFFFFF" d="M365.543,338.769v-0.641h0.767v0.641H365.543z"/>
	<path fill="#FFFFFF" d="M365.543,341.056v-0.641h0.767v0.641H365.543z"/>
	<path fill="#FFFFFF" d="M365.543,343.343v-0.641h0.767v0.641H365.543z"/>
	<path fill="#FFFFFF" d="M365.543,345.631v-0.641h0.767v0.641H365.543z"/>
	<path fill="#FFFFFF" d="M365.543,347.918v-0.641h0.767v0.641H365.543z"/>
	<path fill="#FFFFFF" d="M365.543,350.206v-0.641h0.767v0.641H365.543z"/>
	<path fill="#FFFFFF" d="M365.543,352.493v-0.641h0.767v0.641H365.543z"/>
	<path fill="#FFFFFF" d="M365.543,354.78v-0.641h0.767v0.641H365.543z"/>
	<path fill="#FFFFFF" d="M365.543,357.068v-0.641h0.767v0.641H365.543z"/>
	<path fill="#FFFFFF" d="M365.543,359.355v-0.641h0.767v0.641H365.543z"/>
	<path fill="#FFFFFF" d="M365.543,361.644v-0.641h0.767v0.641H365.543z"/>
	<path fill="#FFFFFF" d="M365.543,363.931v-0.641h0.767v0.641H365.543z"/>
	<path fill="#FFFFFF" d="M365.543,366.218v-0.641h0.767v0.641H365.543z"/>
	<path fill="#FFFFFF" d="M365.543,368.506v-0.641h0.767v0.641H365.543z"/>
	<path fill="#FFFFFF" d="M365.543,370.793v-0.641h0.767v0.641H365.543z"/>
	<path fill="#FFFFFF" d="M365.543,373.081v-0.641h0.767v0.641H365.543z"/>
	<path fill="#FFFFFF" d="M365.543,375.368v-0.641h0.767v0.641H365.543z"/>
	<path fill="#FFFFFF" d="M365.543,377.655v-0.641h0.767v0.641H365.543z"/>
	<path fill="#FFFFFF" d="M365.543,379.943v-0.641h0.767v0.641H365.543z"/>
	<path fill="#FFFFFF" d="M365.543,382.23v-0.641h0.767v0.641H365.543z"/>
	<path fill="#FFFFFF" d="M365.543,384.518v-0.641h0.767v0.641H365.543z"/>
	<path fill="#FFFFFF" d="M365.543,386.806v-0.641h0.767v0.641H365.543z"/>
	<path fill="#FFFFFF" d="M365.543,389.093v-0.641h0.767v0.641H365.543z"/>
	<path fill="#FFFFFF" d="M365.543,391.381v-0.641h0.767v0.641H365.543z"/>
</g>
<g>
	<path fill="#FFFFFF" d="M471.841,280.296v-0.641h0.768v0.641H471.841z"/>
	<path fill="#FFFFFF" d="M471.841,282.583v-0.641h0.768v0.641H471.841z"/>
	<path fill="#FFFFFF" d="M471.841,284.871v-0.641h0.768v0.641H471.841z"/>
	<path fill="#FFFFFF" d="M471.841,287.158v-0.641h0.768v0.641H471.841z"/>
	<path fill="#FFFFFF" d="M471.841,289.446v-0.641h0.768v0.641H471.841z"/>
	<path fill="#FFFFFF" d="M471.841,291.733v-0.641h0.768v0.641H471.841z"/>
	<path fill="#FFFFFF" d="M471.841,294.021v-0.641h0.768v0.641H471.841z"/>
	<path fill="#FFFFFF" d="M471.841,296.308v-0.641h0.768v0.641H471.841z"/>
	<path fill="#FFFFFF" d="M471.841,298.596v-0.641h0.768v0.641H471.841z"/>
	<path fill="#FFFFFF" d="M471.841,300.883v-0.641h0.768v0.641H471.841z"/>
	<path fill="#FFFFFF" d="M471.841,303.171v-0.641h0.768v0.641H471.841z"/>
	<path fill="#FFFFFF" d="M471.841,305.458v-0.641h0.768v0.641H471.841z"/>
	<path fill="#FFFFFF" d="M471.841,307.746v-0.641h0.768v0.641H471.841z"/>
	<path fill="#FFFFFF" d="M471.841,310.033v-0.641h0.768v0.641H471.841z"/>
	<path fill="#FFFFFF" d="M471.841,312.32v-0.641h0.768v0.641H471.841z"/>
	<path fill="#FFFFFF" d="M471.841,314.608v-0.641h0.768v0.641H471.841z"/>
	<path fill="#FFFFFF" d="M471.841,316.896v-0.641h0.768v0.641H471.841z"/>
	<path fill="#FFFFFF" d="M471.841,319.184v-0.641h0.768v0.641H471.841z"/>
	<path fill="#FFFFFF" d="M471.841,321.471v-0.641h0.768v0.641H471.841z"/>
	<path fill="#FFFFFF" d="M471.841,323.758v-0.641h0.768v0.641H471.841z"/>
	<path fill="#FFFFFF" d="M471.841,326.046v-0.641h0.768v0.641H471.841z"/>
	<path fill="#FFFFFF" d="M471.841,328.333v-0.641h0.768v0.641H471.841z"/>
	<path fill="#FFFFFF" d="M471.841,330.621v-0.641h0.768v0.641H471.841z"/>
	<path fill="#FFFFFF" d="M471.841,332.908v-0.641h0.768v0.641H471.841z"/>
	<path fill="#FFFFFF" d="M471.841,335.195v-0.641h0.768v0.641H471.841z"/>
	<path fill="#FFFFFF" d="M471.841,337.483v-0.641h0.768v0.641H471.841z"/>
	<path fill="#FFFFFF" d="M471.841,339.771v-0.641h0.768v0.641H471.841z"/>
	<path fill="#FFFFFF" d="M471.841,342.059v-0.641h0.768v0.641H471.841z"/>
	<path fill="#FFFFFF" d="M471.841,344.346v-0.641h0.768v0.641H471.841z"/>
	<path fill="#FFFFFF" d="M471.841,346.633v-0.641h0.768v0.641H471.841z"/>
	<path fill="#FFFFFF" d="M471.841,348.921v-0.641h0.768v0.641H471.841z"/>
	<path fill="#FFFFFF" d="M471.841,351.208v-0.641h0.768v0.641H471.841z"/>
	<path fill="#FFFFFF" d="M471.841,353.496v-0.641h0.768v0.641H471.841z"/>
	<path fill="#FFFFFF" d="M471.841,355.783v-0.641h0.768v0.641H471.841z"/>
	<path fill="#FFFFFF" d="M471.841,358.07v-0.641h0.768v0.641H471.841z"/>
	<path fill="#FFFFFF" d="M471.841,360.358v-0.641h0.768v0.641H471.841z"/>
</g>
<g>
	<path fill="#FFFFFF" d="M578.137,228.06v-0.641h0.768v0.641H578.137z"/>
	<path fill="#FFFFFF" d="M578.137,230.347v-0.641h0.768v0.641H578.137z"/>
	<path fill="#FFFFFF" d="M578.137,232.635v-0.641h0.768v0.641H578.137z"/>
	<path fill="#FFFFFF" d="M578.137,234.922v-0.641h0.768v0.641H578.137z"/>
	<path fill="#FFFFFF" d="M578.137,237.209v-0.641h0.768v0.641H578.137z"/>
	<path fill="#FFFFFF" d="M578.137,239.497v-0.641h0.768v0.641H578.137z"/>
	<path fill="#FFFFFF" d="M578.137,241.785v-0.641h0.768v0.641H578.137z"/>
	<path fill="#FFFFFF" d="M578.137,244.072v-0.641h0.768v0.641H578.137z"/>
	<path fill="#FFFFFF" d="M578.137,246.359v-0.641h0.768v0.641H578.137z"/>
	<path fill="#FFFFFF" d="M578.137,248.647v-0.641h0.768v0.641H578.137z"/>
	<path fill="#FFFFFF" d="M578.137,250.935v-0.641h0.768v0.641H578.137z"/>
	<path fill="#FFFFFF" d="M578.137,253.222v-0.641h0.768v0.641H578.137z"/>
	<path fill="#FFFFFF" d="M578.137,255.509v-0.641h0.768v0.641H578.137z"/>
	<path fill="#FFFFFF" d="M578.137,257.797v-0.641h0.768v0.641H578.137z"/>
	<path fill="#FFFFFF" d="M578.137,260.084v-0.641h0.768v0.641H578.137z"/>
	<path fill="#FFFFFF" d="M578.137,262.372v-0.641h0.768v0.641H578.137z"/>
	<path fill="#FFFFFF" d="M578.137,264.659v-0.641h0.768v0.641H578.137z"/>
	<path fill="#FFFFFF" d="M578.137,266.947v-0.641h0.768v0.641H578.137z"/>
	<path fill="#FFFFFF" d="M578.137,269.234v-0.641h0.768v0.641H578.137z"/>
	<path fill="#FFFFFF" d="M578.137,271.522v-0.641h0.768v0.641H578.137z"/>
	<path fill="#FFFFFF" d="M578.137,273.81v-0.641h0.768v0.641H578.137z"/>
	<path fill="#FFFFFF" d="M578.137,276.097v-0.641h0.768v0.641H578.137z"/>
	<path fill="#FFFFFF" d="M578.137,278.384v-0.641h0.768v0.641H578.137z"/>
	<path fill="#FFFFFF" d="M578.137,280.672v-0.641h0.768v0.641H578.137z"/>
	<path fill="#FFFFFF" d="M578.137,282.959v-0.641h0.768v0.641H578.137z"/>
	<path fill="#FFFFFF" d="M578.137,285.247v-0.641h0.768v0.641H578.137z"/>
	<path fill="#FFFFFF" d="M578.137,287.534v-0.641h0.768v0.641H578.137z"/>
	<path fill="#FFFFFF" d="M578.137,289.822v-0.641h0.768v0.641H578.137z"/>
	<path fill="#FFFFFF" d="M578.137,292.109v-0.641h0.768v0.641H578.137z"/>
	<path fill="#FFFFFF" d="M578.137,294.397v-0.641h0.768v0.641H578.137z"/>
	<path fill="#FFFFFF" d="M578.137,296.684v-0.641h0.768v0.641H578.137z"/>
	<path fill="#FFFFFF" d="M578.137,298.972v-0.641h0.768v0.641H578.137z"/>
	<path fill="#FFFFFF" d="M578.137,301.26v-0.641h0.768v0.641H578.137z"/>
	<path fill="#FFFFFF" d="M578.137,303.547v-0.641h0.768v0.641H578.137z"/>
	<path fill="#FFFFFF" d="M578.137,305.834v-0.641h0.768v0.641H578.137z"/>
	<path fill="#FFFFFF" d="M578.137,308.122v-0.641h0.768v0.641H578.137z"/>
</g>
<linearGradient id="SVGID_1_" gradientUnits="userSpaceOnUse" x1="365.9712" y1="462.9873" x2="365.9712" y2="311.3506">
	<stop  offset="0.0061" style="stop-color:#000000;stop-opacity:0"/>
	<stop  offset="0.024" style="stop-color:#1B1919;stop-opacity:0.0072"/>
	<stop  offset="0.0972" style="stop-color:#493630;stop-opacity:0.0367"/>
	<stop  offset="0.1758" style="stop-color:#5E3A2E;stop-opacity:0.0683"/>
	<stop  offset="0.2581" style="stop-color:#6E3827;stop-opacity:0.1015"/>
	<stop  offset="0.345" style="stop-color:#7A321F;stop-opacity:0.1364"/>
	<stop  offset="0.4377" style="stop-color:#832916;stop-opacity:0.1737"/>
	<stop  offset="0.5385" style="stop-color:#8B1F0F;stop-opacity:0.2143"/>
	<stop  offset="0.6513" style="stop-color:#90140B;stop-opacity:0.2597"/>
	<stop  offset="0.786" style="stop-color:#930B0A;stop-opacity:0.3139"/>
	<stop  offset="1" style="stop-color:#94070A;stop-opacity:0.4"/>
</linearGradient>
<polygon fill="url(#SVGID_1_)" points="154.29,462.987 258.305,413.032 364.373,395.012 471.354,365.359 577.651,311.351 
	577.286,438.808 480.706,425.122 372.141,423.297 258.305,452.038 "/>
<polyline fill="none" stroke="#E23B32" stroke-width="3" points="155.888,462.987 259.903,413.032 365.97,395.012 472.268,365.359 
	578.564,311.351 "/>
<polyline fill="none" stroke="#FFFFFF" stroke-width="3" points="155.888,462.987 264.237,450.944 373.738,423.297 484.219,425.388 
	577.286,438.808 "/>
<circle fill="#FFFFFF" cx="155.888" cy="462.987" r="4.334"/>
<circle fill="#FFFFFF" cx="259.903" cy="413.032" r="4.334"/>
<circle fill="#FFFFFF" cx="365.971" cy="395.012" r="4.334"/>
<circle fill="#FFFFFF" cx="472.268" cy="365.359" r="4.334"/>
<circle fill="#FFFFFF" cx="578.564" cy="311.351" r="4.334"/>
<linearGradient id="SVGID_2_" gradientUnits="userSpaceOnUse" x1="365.7886" y1="509.9766" x2="365.7886" y2="423.2969">
	<stop  offset="0" style="stop-color:#FFFFFF;stop-opacity:0"/>
	<stop  offset="1" style="stop-color:#FFFFFF;stop-opacity:0.15"/>
</linearGradient>
<polygon fill="url(#SVGID_2_)" points="154.29,462.987 264.237,450.944 373.738,423.297 482.331,425.352 577.286,438.808 
	577.286,509.977 154.29,509.749 "/>
<g>
	<path fill="#FFFFFF" d="M155.712,465.412h-0.641v-0.768h0.641V465.412z"/>
	<path fill="#FFFFFF" d="M159.916,465.412h-0.641v-0.768h0.641V465.412z"/>
	<path fill="#FFFFFF" d="M164.119,465.412h-0.641v-0.768h0.641V465.412z"/>
	<path fill="#FFFFFF" d="M168.323,465.412h-0.641v-0.768h0.641V465.412z"/>
	<path fill="#FFFFFF" d="M172.526,465.412h-0.641v-0.768h0.641V465.412z"/>
	<path fill="#FFFFFF" d="M176.729,465.412h-0.641v-0.768h0.641V465.412z"/>
	<path fill="#FFFFFF" d="M180.933,465.412h-0.641v-0.768h0.641V465.412z"/>
	<path fill="#FFFFFF" d="M185.137,465.412h-0.641v-0.768h0.641V465.412z"/>
	<path fill="#FFFFFF" d="M189.34,465.412H188.7v-0.768h0.641V465.412z"/>
	<path fill="#FFFFFF" d="M193.544,465.412h-0.641v-0.768h0.641V465.412z"/>
	<path fill="#FFFFFF" d="M197.748,465.412h-0.641v-0.768h0.641V465.412z"/>
	<path fill="#FFFFFF" d="M201.951,465.412h-0.641v-0.768h0.641V465.412z"/>
	<path fill="#FFFFFF" d="M206.155,465.412h-0.641v-0.768h0.641V465.412z"/>
	<path fill="#FFFFFF" d="M210.358,465.412h-0.641v-0.768h0.641V465.412z"/>
	<path fill="#FFFFFF" d="M214.562,465.412h-0.641v-0.768h0.641V465.412z"/>
	<path fill="#FFFFFF" d="M218.765,465.412h-0.641v-0.768h0.641V465.412z"/>
	<path fill="#FFFFFF" d="M222.969,465.412h-0.641v-0.768h0.641V465.412z"/>
	<path fill="#FFFFFF" d="M227.172,465.412h-0.641v-0.768h0.641V465.412z"/>
	<path fill="#FFFFFF" d="M231.376,465.412h-0.641v-0.768h0.641V465.412z"/>
	<path fill="#FFFFFF" d="M235.58,465.412h-0.641v-0.768h0.641V465.412z"/>
	<path fill="#FFFFFF" d="M239.783,465.412h-0.641v-0.768h0.641V465.412z"/>
	<path fill="#FFFFFF" d="M243.987,465.412h-0.641v-0.768h0.641V465.412z"/>
	<path fill="#FFFFFF" d="M248.19,465.412h-0.641v-0.768h0.641V465.412z"/>
	<path fill="#FFFFFF" d="M252.394,465.412h-0.641v-0.768h0.641V465.412z"/>
	<path fill="#FFFFFF" d="M256.598,465.412h-0.641v-0.768h0.641V465.412z"/>
	<path fill="#FFFFFF" d="M260.801,465.412h-0.641v-0.768h0.641V465.412z"/>
	<path fill="#FFFFFF" d="M265.004,465.412h-0.641v-0.768h0.641V465.412z"/>
	<path fill="#FFFFFF" d="M269.208,465.412h-0.641v-0.768h0.641V465.412z"/>
	<path fill="#FFFFFF" d="M273.412,465.412h-0.641v-0.768h0.641V465.412z"/>
	<path fill="#FFFFFF" d="M277.615,465.412h-0.641v-0.768h0.641V465.412z"/>
	<path fill="#FFFFFF" d="M281.819,465.412h-0.641v-0.768h0.641V465.412z"/>
	<path fill="#FFFFFF" d="M286.022,465.412h-0.641v-0.768h0.641V465.412z"/>
	<path fill="#FFFFFF" d="M290.226,465.412h-0.641v-0.768h0.641V465.412z"/>
	<path fill="#FFFFFF" d="M294.43,465.412h-0.641v-0.768h0.641V465.412z"/>
	<path fill="#FFFFFF" d="M298.633,465.412h-0.641v-0.768h0.641V465.412z"/>
	<path fill="#FFFFFF" d="M302.836,465.412h-0.641v-0.768h0.641V465.412z"/>
	<path fill="#FFFFFF" d="M307.04,465.412h-0.641v-0.768h0.641V465.412z"/>
	<path fill="#FFFFFF" d="M311.244,465.412h-0.641v-0.768h0.641V465.412z"/>
	<path fill="#FFFFFF" d="M315.447,465.412h-0.641v-0.768h0.641V465.412z"/>
	<path fill="#FFFFFF" d="M319.651,465.412h-0.641v-0.768h0.641V465.412z"/>
	<path fill="#FFFFFF" d="M323.854,465.412h-0.641v-0.768h0.641V465.412z"/>
	<path fill="#FFFFFF" d="M328.058,465.412h-0.641v-0.768h0.641V465.412z"/>
	<path fill="#FFFFFF" d="M332.262,465.412h-0.641v-0.768h0.641V465.412z"/>
	<path fill="#FFFFFF" d="M336.465,465.412h-0.641v-0.768h0.641V465.412z"/>
	<path fill="#FFFFFF" d="M340.668,465.412h-0.641v-0.768h0.641V465.412z"/>
	<path fill="#FFFFFF" d="M344.872,465.412h-0.641v-0.768h0.641V465.412z"/>
	<path fill="#FFFFFF" d="M349.076,465.412h-0.641v-0.768h0.641V465.412z"/>
	<path fill="#FFFFFF" d="M353.279,465.412h-0.641v-0.768h0.641V465.412z"/>
	<path fill="#FFFFFF" d="M357.483,465.412h-0.641v-0.768h0.641V465.412z"/>
	<path fill="#FFFFFF" d="M361.687,465.412h-0.641v-0.768h0.641V465.412z"/>
	<path fill="#FFFFFF" d="M365.89,465.412h-0.641v-0.768h0.641V465.412z"/>
	<path fill="#FFFFFF" d="M370.094,465.412h-0.641v-0.768h0.641V465.412z"/>
	<path fill="#FFFFFF" d="M374.297,465.412h-0.641v-0.768h0.641V465.412z"/>
	<path fill="#FFFFFF" d="M378.5,465.412h-0.641v-0.768h0.641V465.412z"/>
	<path fill="#FFFFFF" d="M382.704,465.412h-0.641v-0.768h0.641V465.412z"/>
	<path fill="#FFFFFF" d="M386.908,465.412h-0.641v-0.768h0.641V465.412z"/>
	<path fill="#FFFFFF" d="M391.111,465.412h-0.641v-0.768h0.641V465.412z"/>
	<path fill="#FFFFFF" d="M395.315,465.412h-0.641v-0.768h0.641V465.412z"/>
	<path fill="#FFFFFF" d="M399.519,465.412h-0.641v-0.768h0.641V465.412z"/>
	<path fill="#FFFFFF" d="M403.722,465.412h-0.641v-0.768h0.641V465.412z"/>
	<path fill="#FFFFFF" d="M407.926,465.412h-0.641v-0.768h0.641V465.412z"/>
	<path fill="#FFFFFF" d="M412.129,465.412h-0.641v-0.768h0.641V465.412z"/>
	<path fill="#FFFFFF" d="M416.333,465.412h-0.641v-0.768h0.641V465.412z"/>
	<path fill="#FFFFFF" d="M420.536,465.412h-0.641v-0.768h0.641V465.412z"/>
	<path fill="#FFFFFF" d="M424.74,465.412H424.1v-0.768h0.641V465.412z"/>
	<path fill="#FFFFFF" d="M428.943,465.412h-0.641v-0.768h0.641V465.412z"/>
	<path fill="#FFFFFF" d="M433.146,465.412h-0.641v-0.768h0.641V465.412z"/>
	<path fill="#FFFFFF" d="M437.351,465.412h-0.641v-0.768h0.641V465.412z"/>
	<path fill="#FFFFFF" d="M441.554,465.412h-0.641v-0.768h0.641V465.412z"/>
	<path fill="#FFFFFF" d="M445.758,465.412h-0.641v-0.768h0.641V465.412z"/>
	<path fill="#FFFFFF" d="M449.961,465.412h-0.641v-0.768h0.641V465.412z"/>
	<path fill="#FFFFFF" d="M454.165,465.412h-0.641v-0.768h0.641V465.412z"/>
	<path fill="#FFFFFF" d="M458.368,465.412h-0.641v-0.768h0.641V465.412z"/>
	<path fill="#FFFFFF" d="M462.572,465.412h-0.641v-0.768h0.641V465.412z"/>
	<path fill="#FFFFFF" d="M466.775,465.412h-0.641v-0.768h0.641V465.412z"/>
	<path fill="#FFFFFF" d="M470.979,465.412h-0.641v-0.768h0.641V465.412z"/>
	<path fill="#FFFFFF" d="M475.183,465.412h-0.641v-0.768h0.641V465.412z"/>
	<path fill="#FFFFFF" d="M479.387,465.412h-0.641v-0.768h0.641V465.412z"/>
	<path fill="#FFFFFF" d="M483.59,465.412h-0.641v-0.768h0.641V465.412z"/>
	<path fill="#FFFFFF" d="M487.793,465.412h-0.641v-0.768h0.641V465.412z"/>
	<path fill="#FFFFFF" d="M491.997,465.412h-0.641v-0.768h0.641V465.412z"/>
	<path fill="#FFFFFF" d="M496.2,465.412h-0.641v-0.768h0.641V465.412z"/>
	<path fill="#FFFFFF" d="M500.404,465.412h-0.641v-0.768h0.641V465.412z"/>
	<path fill="#FFFFFF" d="M504.607,465.412h-0.641v-0.768h0.641V465.412z"/>
	<path fill="#FFFFFF" d="M508.812,465.412h-0.641v-0.768h0.641V465.412z"/>
	<path fill="#FFFFFF" d="M513.015,465.412h-0.641v-0.768h0.641V465.412z"/>
	<path fill="#FFFFFF" d="M517.219,465.412h-0.641v-0.768h0.641V465.412z"/>
	<path fill="#FFFFFF" d="M521.422,465.412h-0.641v-0.768h0.641V465.412z"/>
	<path fill="#FFFFFF" d="M525.625,465.412h-0.641v-0.768h0.641V465.412z"/>
	<path fill="#FFFFFF" d="M529.829,465.412h-0.641v-0.768h0.641V465.412z"/>
	<path fill="#FFFFFF" d="M534.032,465.412h-0.641v-0.768h0.641V465.412z"/>
	<path fill="#FFFFFF" d="M538.236,465.412h-0.641v-0.768h0.641V465.412z"/>
	<path fill="#FFFFFF" d="M542.439,465.412h-0.641v-0.768h0.641V465.412z"/>
	<path fill="#FFFFFF" d="M546.644,465.412h-0.641v-0.768h0.641V465.412z"/>
	<path fill="#FFFFFF" d="M550.847,465.412h-0.641v-0.768h0.641V465.412z"/>
	<path fill="#FFFFFF" d="M555.051,465.412h-0.641v-0.768h0.641V465.412z"/>
	<path fill="#FFFFFF" d="M559.254,465.412h-0.641v-0.768h0.641V465.412z"/>
	<path fill="#FFFFFF" d="M563.458,465.412h-0.641v-0.768h0.641V465.412z"/>
	<path fill="#FFFFFF" d="M567.661,465.412h-0.641v-0.768h0.641V465.412z"/>
	<path fill="#FFFFFF" d="M571.864,465.412h-0.641v-0.768h0.641V465.412z"/>
	<path fill="#FFFFFF" d="M576.068,465.412h-0.641v-0.768h0.641V465.412z"/>
	<path fill="#FFFFFF" d="M580.271,465.412h-0.641v-0.768h0.641V465.412z"/>
	<path fill="#FFFFFF" d="M584.476,465.412h-0.641v-0.768h0.641V465.412z"/>
	<path fill="#FFFFFF" d="M588.679,465.412h-0.641v-0.768h0.641V465.412z"/>
	<path fill="#FFFFFF" d="M592.883,465.412h-0.641v-0.768h0.641V465.412z"/>
	<path fill="#FFFFFF" d="M597.086,465.412h-0.641v-0.768h0.641V465.412z"/>
	<path fill="#FFFFFF" d="M601.29,465.412h-0.641v-0.768h0.641V465.412z"/>
	<path fill="#FFFFFF" d="M605.493,465.412h-0.641v-0.768h0.641V465.412z"/>
	<path fill="#FFFFFF" d="M609.697,465.412h-0.641v-0.768h0.641V465.412z"/>
	<path fill="#FFFFFF" d="M613.9,465.412h-0.641v-0.768h0.641V465.412z"/>
	<path fill="#FFFFFF" d="M618.104,465.412h-0.641v-0.768h0.641V465.412z"/>
	<path fill="#FFFFFF" d="M622.308,465.412h-0.641v-0.768h0.641V465.412z"/>
	<path fill="#FFFFFF" d="M626.511,465.412h-0.641v-0.768h0.641V465.412z"/>
	<path fill="#FFFFFF" d="M630.715,465.412h-0.641v-0.768h0.641V465.412z"/>
	<path fill="#FFFFFF" d="M634.918,465.412h-0.641v-0.768h0.641V465.412z"/>
	<path fill="#FFFFFF" d="M639.122,465.412h-0.641v-0.768h0.641V465.412z"/>
	<path fill="#FFFFFF" d="M643.325,465.412h-0.641v-0.768h0.641V465.412z"/>
	<path fill="#FFFFFF" d="M647.529,465.412h-0.641v-0.768h0.641V465.412z"/>
	<path fill="#FFFFFF" d="M651.732,465.412h-0.641v-0.768h0.641V465.412z"/>
	<path fill="#FFFFFF" d="M655.936,465.412h-0.641v-0.768h0.641V465.412z"/>
	<path fill="#FFFFFF" d="M660.14,465.412h-0.641v-0.768h0.641V465.412z"/>
	<path fill="#FFFFFF" d="M664.343,465.412h-0.641v-0.768h0.641V465.412z"/>
</g>
<g>
	<path fill="#FFFFFF" d="M155.712,499.628h-0.641v-0.768h0.641V499.628z"/>
	<path fill="#FFFFFF" d="M158,499.628h-0.641v-0.768H158V499.628z"/>
	<path fill="#FFFFFF" d="M160.287,499.628h-0.641v-0.768h0.641V499.628z"/>
	<path fill="#FFFFFF" d="M162.574,499.628h-0.641v-0.768h0.641V499.628z"/>
	<path fill="#FFFFFF" d="M164.862,499.628h-0.641v-0.768h0.641V499.628z"/>
	<path fill="#FFFFFF" d="M167.149,499.628h-0.641v-0.768h0.641V499.628z"/>
	<path fill="#FFFFFF" d="M169.437,499.628h-0.641v-0.768h0.641V499.628z"/>
	<path fill="#FFFFFF" d="M171.724,499.628h-0.641v-0.768h0.641V499.628z"/>
	<path fill="#FFFFFF" d="M174.012,499.628h-0.641v-0.768h0.641V499.628z"/>
	<path fill="#FFFFFF" d="M176.299,499.628h-0.641v-0.768h0.641V499.628z"/>
	<path fill="#FFFFFF" d="M178.587,499.628h-0.641v-0.768h0.641V499.628z"/>
	<path fill="#FFFFFF" d="M180.875,499.628h-0.641v-0.768h0.641V499.628z"/>
	<path fill="#FFFFFF" d="M183.162,499.628h-0.641v-0.768h0.641V499.628z"/>
	<path fill="#FFFFFF" d="M185.449,499.628h-0.641v-0.768h0.641V499.628z"/>
	<path fill="#FFFFFF" d="M187.737,499.628h-0.641v-0.768h0.641V499.628z"/>
	<path fill="#FFFFFF" d="M190.024,499.628h-0.641v-0.768h0.641V499.628z"/>
	<path fill="#FFFFFF" d="M192.312,499.628h-0.641v-0.768h0.641V499.628z"/>
	<path fill="#FFFFFF" d="M194.599,499.628h-0.641v-0.768h0.641V499.628z"/>
	<path fill="#FFFFFF" d="M196.887,499.628h-0.641v-0.768h0.641V499.628z"/>
	<path fill="#FFFFFF" d="M199.174,499.628h-0.641v-0.768h0.641V499.628z"/>
	<path fill="#FFFFFF" d="M201.462,499.628h-0.641v-0.768h0.641V499.628z"/>
	<path fill="#FFFFFF" d="M203.749,499.628h-0.641v-0.768h0.641V499.628z"/>
	<path fill="#FFFFFF" d="M206.037,499.628h-0.641v-0.768h0.641V499.628z"/>
	<path fill="#FFFFFF" d="M208.324,499.628h-0.641v-0.768h0.641V499.628z"/>
	<path fill="#FFFFFF" d="M210.612,499.628h-0.641v-0.768h0.641V499.628z"/>
	<path fill="#FFFFFF" d="M212.899,499.628h-0.641v-0.768h0.641V499.628z"/>
	<path fill="#FFFFFF" d="M215.187,499.628h-0.641v-0.768h0.641V499.628z"/>
	<path fill="#FFFFFF" d="M217.474,499.628h-0.641v-0.768h0.641V499.628z"/>
	<path fill="#FFFFFF" d="M219.762,499.628h-0.641v-0.768h0.641V499.628z"/>
	<path fill="#FFFFFF" d="M222.049,499.628h-0.641v-0.768h0.641V499.628z"/>
	<path fill="#FFFFFF" d="M224.336,499.628h-0.641v-0.768h0.641V499.628z"/>
	<path fill="#FFFFFF" d="M226.624,499.628h-0.641v-0.768h0.641V499.628z"/>
	<path fill="#FFFFFF" d="M228.912,499.628h-0.641v-0.768h0.641V499.628z"/>
	<path fill="#FFFFFF" d="M231.199,499.628h-0.641v-0.768h0.641V499.628z"/>
	<path fill="#FFFFFF" d="M233.487,499.628h-0.641v-0.768h0.641V499.628z"/>
	<path fill="#FFFFFF" d="M235.774,499.628h-0.641v-0.768h0.641V499.628z"/>
	<path fill="#FFFFFF" d="M238.062,499.628h-0.641v-0.768h0.641V499.628z"/>
	<path fill="#FFFFFF" d="M240.349,499.628h-0.641v-0.768h0.641V499.628z"/>
	<path fill="#FFFFFF" d="M242.637,499.628h-0.641v-0.768h0.641V499.628z"/>
	<path fill="#FFFFFF" d="M244.924,499.628h-0.641v-0.768h0.641V499.628z"/>
	<path fill="#FFFFFF" d="M247.211,499.628h-0.641v-0.768h0.641V499.628z"/>
	<path fill="#FFFFFF" d="M249.499,499.628h-0.641v-0.768h0.641V499.628z"/>
	<path fill="#FFFFFF" d="M251.787,499.628h-0.641v-0.768h0.641V499.628z"/>
	<path fill="#FFFFFF" d="M254.074,499.628h-0.641v-0.768h0.641V499.628z"/>
	<path fill="#FFFFFF" d="M256.361,499.628h-0.641v-0.768h0.641V499.628z"/>
	<path fill="#FFFFFF" d="M258.649,499.628h-0.641v-0.768h0.641V499.628z"/>
	<path fill="#FFFFFF" d="M260.937,499.628h-0.641v-0.768h0.641V499.628z"/>
	<path fill="#FFFFFF" d="M263.224,499.628h-0.641v-0.768h0.641V499.628z"/>
	<path fill="#FFFFFF" d="M265.512,499.628h-0.641v-0.768h0.641V499.628z"/>
	<path fill="#FFFFFF" d="M267.799,499.628h-0.641v-0.768h0.641V499.628z"/>
	<path fill="#FFFFFF" d="M270.086,499.628h-0.641v-0.768h0.641V499.628z"/>
	<path fill="#FFFFFF" d="M272.374,499.628h-0.641v-0.768h0.641V499.628z"/>
	<path fill="#FFFFFF" d="M274.662,499.628h-0.641v-0.768h0.641V499.628z"/>
	<path fill="#FFFFFF" d="M276.949,499.628h-0.641v-0.768h0.641V499.628z"/>
	<path fill="#FFFFFF" d="M279.236,499.628h-0.641v-0.768h0.641V499.628z"/>
	<path fill="#FFFFFF" d="M281.524,499.628h-0.641v-0.768h0.641V499.628z"/>
	<path fill="#FFFFFF" d="M283.812,499.628h-0.641v-0.768h0.641V499.628z"/>
	<path fill="#FFFFFF" d="M286.099,499.628h-0.641v-0.768h0.641V499.628z"/>
	<path fill="#FFFFFF" d="M288.386,499.628h-0.641v-0.768h0.641V499.628z"/>
	<path fill="#FFFFFF" d="M290.674,499.628h-0.641v-0.768h0.641V499.628z"/>
	<path fill="#FFFFFF" d="M292.961,499.628h-0.641v-0.768h0.641V499.628z"/>
	<path fill="#FFFFFF" d="M295.249,499.628h-0.641v-0.768h0.641V499.628z"/>
	<path fill="#FFFFFF" d="M297.536,499.628h-0.641v-0.768h0.641V499.628z"/>
	<path fill="#FFFFFF" d="M299.824,499.628h-0.641v-0.768h0.641V499.628z"/>
	<path fill="#FFFFFF" d="M302.111,499.628h-0.641v-0.768h0.641V499.628z"/>
	<path fill="#FFFFFF" d="M304.399,499.628h-0.641v-0.768h0.641V499.628z"/>
	<path fill="#FFFFFF" d="M306.687,499.628h-0.641v-0.768h0.641V499.628z"/>
	<path fill="#FFFFFF" d="M308.974,499.628h-0.641v-0.768h0.641V499.628z"/>
	<path fill="#FFFFFF" d="M311.261,499.628h-0.641v-0.768h0.641V499.628z"/>
	<path fill="#FFFFFF" d="M313.549,499.628h-0.641v-0.768h0.641V499.628z"/>
	<path fill="#FFFFFF" d="M315.836,499.628h-0.641v-0.768h0.641V499.628z"/>
	<path fill="#FFFFFF" d="M318.124,499.628h-0.641v-0.768h0.641V499.628z"/>
	<path fill="#FFFFFF" d="M320.411,499.628h-0.641v-0.768h0.641V499.628z"/>
	<path fill="#FFFFFF" d="M322.699,499.628h-0.641v-0.768h0.641V499.628z"/>
	<path fill="#FFFFFF" d="M324.986,499.628h-0.641v-0.768h0.641V499.628z"/>
	<path fill="#FFFFFF" d="M327.274,499.628h-0.641v-0.768h0.641V499.628z"/>
	<path fill="#FFFFFF" d="M329.561,499.628h-0.641v-0.768h0.641V499.628z"/>
	<path fill="#FFFFFF" d="M331.849,499.628h-0.641v-0.768h0.641V499.628z"/>
	<path fill="#FFFFFF" d="M334.136,499.628h-0.641v-0.768h0.641V499.628z"/>
	<path fill="#FFFFFF" d="M336.424,499.628h-0.641v-0.768h0.641V499.628z"/>
	<path fill="#FFFFFF" d="M338.711,499.628h-0.641v-0.768h0.641V499.628z"/>
	<path fill="#FFFFFF" d="M340.999,499.628h-0.641v-0.768h0.641V499.628z"/>
	<path fill="#FFFFFF" d="M343.286,499.628h-0.641v-0.768h0.641V499.628z"/>
	<path fill="#FFFFFF" d="M345.574,499.628h-0.641v-0.768h0.641V499.628z"/>
	<path fill="#FFFFFF" d="M347.861,499.628h-0.641v-0.768h0.641V499.628z"/>
	<path fill="#FFFFFF" d="M350.148,499.628h-0.641v-0.768h0.641V499.628z"/>
	<path fill="#FFFFFF" d="M352.436,499.628h-0.641v-0.768h0.641V499.628z"/>
	<path fill="#FFFFFF" d="M354.724,499.628h-0.641v-0.768h0.641V499.628z"/>
	<path fill="#FFFFFF" d="M357.011,499.628h-0.641v-0.768h0.641V499.628z"/>
	<path fill="#FFFFFF" d="M359.299,499.628h-0.641v-0.768h0.641V499.628z"/>
	<path fill="#FFFFFF" d="M361.586,499.628h-0.641v-0.768h0.641V499.628z"/>
	<path fill="#FFFFFF" d="M363.874,499.628h-0.641v-0.768h0.641V499.628z"/>
	<path fill="#FFFFFF" d="M366.161,499.628h-0.641v-0.768h0.641V499.628z"/>
	<path fill="#FFFFFF" d="M368.449,499.628h-0.641v-0.768h0.641V499.628z"/>
	<path fill="#FFFFFF" d="M370.736,499.628h-0.641v-0.768h0.641V499.628z"/>
	<path fill="#FFFFFF" d="M373.023,499.628h-0.641v-0.768h0.641V499.628z"/>
	<path fill="#FFFFFF" d="M375.311,499.628h-0.641v-0.768h0.641V499.628z"/>
	<path fill="#FFFFFF" d="M377.599,499.628h-0.641v-0.768h0.641V499.628z"/>
	<path fill="#FFFFFF" d="M379.886,499.628h-0.641v-0.768h0.641V499.628z"/>
	<path fill="#FFFFFF" d="M382.173,499.628h-0.641v-0.768h0.641V499.628z"/>
	<path fill="#FFFFFF" d="M384.461,499.628h-0.641v-0.768h0.641V499.628z"/>
	<path fill="#FFFFFF" d="M386.749,499.628h-0.641v-0.768h0.641V499.628z"/>
	<path fill="#FFFFFF" d="M389.036,499.628h-0.641v-0.768h0.641V499.628z"/>
	<path fill="#FFFFFF" d="M391.323,499.628h-0.641v-0.768h0.641V499.628z"/>
	<path fill="#FFFFFF" d="M393.611,499.628h-0.641v-0.768h0.641V499.628z"/>
	<path fill="#FFFFFF" d="M395.898,499.628h-0.641v-0.768h0.641V499.628z"/>
	<path fill="#FFFFFF" d="M398.186,499.628h-0.641v-0.768h0.641V499.628z"/>
	<path fill="#FFFFFF" d="M400.474,499.628h-0.641v-0.768h0.641V499.628z"/>
	<path fill="#FFFFFF" d="M402.761,499.628h-0.641v-0.768h0.641V499.628z"/>
	<path fill="#FFFFFF" d="M405.048,499.628h-0.641v-0.768h0.641V499.628z"/>
	<path fill="#FFFFFF" d="M407.336,499.628h-0.641v-0.768h0.641V499.628z"/>
	<path fill="#FFFFFF" d="M409.624,499.628h-0.641v-0.768h0.641V499.628z"/>
	<path fill="#FFFFFF" d="M411.911,499.628h-0.641v-0.768h0.641V499.628z"/>
	<path fill="#FFFFFF" d="M414.198,499.628h-0.641v-0.768h0.641V499.628z"/>
	<path fill="#FFFFFF" d="M416.486,499.628h-0.641v-0.768h0.641V499.628z"/>
	<path fill="#FFFFFF" d="M418.773,499.628h-0.641v-0.768h0.641V499.628z"/>
	<path fill="#FFFFFF" d="M421.061,499.628h-0.641v-0.768h0.641V499.628z"/>
	<path fill="#FFFFFF" d="M423.349,499.628h-0.641v-0.768h0.641V499.628z"/>
	<path fill="#FFFFFF" d="M425.636,499.628h-0.641v-0.768h0.641V499.628z"/>
	<path fill="#FFFFFF" d="M427.923,499.628h-0.641v-0.768h0.641V499.628z"/>
	<path fill="#FFFFFF" d="M430.211,499.628h-0.641v-0.768h0.641V499.628z"/>
	<path fill="#FFFFFF" d="M432.498,499.628h-0.641v-0.768h0.641V499.628z"/>
	<path fill="#FFFFFF" d="M434.785,499.628h-0.641v-0.768h0.641V499.628z"/>
	<path fill="#FFFFFF" d="M437.073,499.628h-0.641v-0.768h0.641V499.628z"/>
	<path fill="#FFFFFF" d="M439.36,499.628h-0.641v-0.768h0.641V499.628z"/>
	<path fill="#FFFFFF" d="M441.648,499.628h-0.641v-0.768h0.641V499.628z"/>
	<path fill="#FFFFFF" d="M443.936,499.628h-0.641v-0.768h0.641V499.628z"/>
	<path fill="#FFFFFF" d="M446.223,499.628h-0.641v-0.768h0.641V499.628z"/>
	<path fill="#FFFFFF" d="M448.511,499.628h-0.641v-0.768h0.641V499.628z"/>
	<path fill="#FFFFFF" d="M450.798,499.628h-0.641v-0.768h0.641V499.628z"/>
	<path fill="#FFFFFF" d="M453.086,499.628h-0.641v-0.768h0.641V499.628z"/>
	<path fill="#FFFFFF" d="M455.373,499.628h-0.641v-0.768h0.641V499.628z"/>
	<path fill="#FFFFFF" d="M457.66,499.628h-0.641v-0.768h0.641V499.628z"/>
	<path fill="#FFFFFF" d="M459.948,499.628h-0.641v-0.768h0.641V499.628z"/>
	<path fill="#FFFFFF" d="M462.235,499.628h-0.641v-0.768h0.641V499.628z"/>
	<path fill="#FFFFFF" d="M464.522,499.628h-0.641v-0.768h0.641V499.628z"/>
	<path fill="#FFFFFF" d="M466.811,499.628h-0.641v-0.768h0.641V499.628z"/>
	<path fill="#FFFFFF" d="M469.098,499.628h-0.641v-0.768h0.641V499.628z"/>
	<path fill="#FFFFFF" d="M471.385,499.628h-0.641v-0.768h0.641V499.628z"/>
	<path fill="#FFFFFF" d="M473.673,499.628h-0.641v-0.768h0.641V499.628z"/>
	<path fill="#FFFFFF" d="M475.96,499.628h-0.641v-0.768h0.641V499.628z"/>
	<path fill="#FFFFFF" d="M478.248,499.628h-0.641v-0.768h0.641V499.628z"/>
	<path fill="#FFFFFF" d="M480.535,499.628h-0.641v-0.768h0.641V499.628z"/>
	<path fill="#FFFFFF" d="M482.822,499.628h-0.641v-0.768h0.641V499.628z"/>
	<path fill="#FFFFFF" d="M485.11,499.628h-0.641v-0.768h0.641V499.628z"/>
	<path fill="#FFFFFF" d="M487.397,499.628h-0.641v-0.768h0.641V499.628z"/>
	<path fill="#FFFFFF" d="M489.686,499.628h-0.641v-0.768h0.641V499.628z"/>
	<path fill="#FFFFFF" d="M491.973,499.628h-0.641v-0.768h0.641V499.628z"/>
	<path fill="#FFFFFF" d="M494.26,499.628h-0.641v-0.768h0.641V499.628z"/>
	<path fill="#FFFFFF" d="M496.548,499.628h-0.641v-0.768h0.641V499.628z"/>
	<path fill="#FFFFFF" d="M498.835,499.628h-0.641v-0.768h0.641V499.628z"/>
	<path fill="#FFFFFF" d="M501.122,499.628h-0.641v-0.768h0.641V499.628z"/>
	<path fill="#FFFFFF" d="M503.41,499.628h-0.641v-0.768h0.641V499.628z"/>
	<path fill="#FFFFFF" d="M505.697,499.628h-0.641v-0.768h0.641V499.628z"/>
	<path fill="#FFFFFF" d="M507.984,499.628h-0.641v-0.768h0.641V499.628z"/>
	<path fill="#FFFFFF" d="M510.272,499.628h-0.641v-0.768h0.641V499.628z"/>
	<path fill="#FFFFFF" d="M512.56,499.628h-0.641v-0.768h0.641V499.628z"/>
	<path fill="#FFFFFF" d="M514.848,499.628h-0.641v-0.768h0.641V499.628z"/>
	<path fill="#FFFFFF" d="M517.135,499.628h-0.641v-0.768h0.641V499.628z"/>
	<path fill="#FFFFFF" d="M519.422,499.628h-0.641v-0.768h0.641V499.628z"/>
	<path fill="#FFFFFF" d="M521.71,499.628h-0.641v-0.768h0.641V499.628z"/>
	<path fill="#FFFFFF" d="M523.997,499.628h-0.641v-0.768h0.641V499.628z"/>
	<path fill="#FFFFFF" d="M526.285,499.628h-0.641v-0.768h0.641V499.628z"/>
	<path fill="#FFFFFF" d="M528.572,499.628h-0.641v-0.768h0.641V499.628z"/>
	<path fill="#FFFFFF" d="M530.859,499.628h-0.641v-0.768h0.641V499.628z"/>
	<path fill="#FFFFFF" d="M533.147,499.628h-0.641v-0.768h0.641V499.628z"/>
	<path fill="#FFFFFF" d="M535.435,499.628h-0.641v-0.768h0.641V499.628z"/>
	<path fill="#FFFFFF" d="M537.722,499.628h-0.641v-0.768h0.641V499.628z"/>
	<path fill="#FFFFFF" d="M540.01,499.628h-0.641v-0.768h0.641V499.628z"/>
	<path fill="#FFFFFF" d="M542.297,499.628h-0.641v-0.768h0.641V499.628z"/>
	<path fill="#FFFFFF" d="M544.584,499.628h-0.641v-0.768h0.641V499.628z"/>
	<path fill="#FFFFFF" d="M546.872,499.628h-0.641v-0.768h0.641V499.628z"/>
	<path fill="#FFFFFF" d="M549.159,499.628h-0.641v-0.768h0.641V499.628z"/>
	<path fill="#FFFFFF" d="M551.447,499.628h-0.641v-0.768h0.641V499.628z"/>
	<path fill="#FFFFFF" d="M553.734,499.628h-0.641v-0.768h0.641V499.628z"/>
	<path fill="#FFFFFF" d="M556.021,499.628h-0.641v-0.768h0.641V499.628z"/>
	<path fill="#FFFFFF" d="M558.31,499.628h-0.641v-0.768h0.641V499.628z"/>
	<path fill="#FFFFFF" d="M560.597,499.628h-0.641v-0.768h0.641V499.628z"/>
	<path fill="#FFFFFF" d="M562.885,499.628h-0.641v-0.768h0.641V499.628z"/>
	<path fill="#FFFFFF" d="M565.172,499.628h-0.641v-0.768h0.641V499.628z"/>
	<path fill="#FFFFFF" d="M567.459,499.628h-0.641v-0.768h0.641V499.628z"/>
	<path fill="#FFFFFF" d="M569.747,499.628h-0.641v-0.768h0.641V499.628z"/>
	<path fill="#FFFFFF" d="M572.034,499.628h-0.641v-0.768h0.641V499.628z"/>
	<path fill="#FFFFFF" d="M574.321,499.628h-0.641v-0.768h0.641V499.628z"/>
	<path fill="#FFFFFF" d="M576.609,499.628h-0.641v-0.768h0.641V499.628z"/>
	<path fill="#FFFFFF" d="M578.896,499.628h-0.641v-0.768h0.641V499.628z"/>
	<path fill="#FFFFFF" d="M581.184,499.628h-0.641v-0.768h0.641V499.628z"/>
	<path fill="#FFFFFF" d="M583.472,499.628h-0.641v-0.768h0.641V499.628z"/>
	<path fill="#FFFFFF" d="M585.759,499.628h-0.641v-0.768h0.641V499.628z"/>
	<path fill="#FFFFFF" d="M588.047,499.628h-0.641v-0.768h0.641V499.628z"/>
	<path fill="#FFFFFF" d="M590.334,499.628h-0.641v-0.768h0.641V499.628z"/>
	<path fill="#FFFFFF" d="M592.621,499.628h-0.641v-0.768h0.641V499.628z"/>
	<path fill="#FFFFFF" d="M594.909,499.628h-0.641v-0.768h0.641V499.628z"/>
	<path fill="#FFFFFF" d="M597.196,499.628h-0.641v-0.768h0.641V499.628z"/>
	<path fill="#FFFFFF" d="M599.484,499.628h-0.641v-0.768h0.641V499.628z"/>
	<path fill="#FFFFFF" d="M601.771,499.628h-0.641v-0.768h0.641V499.628z"/>
	<path fill="#FFFFFF" d="M604.059,499.628h-0.641v-0.768h0.641V499.628z"/>
	<path fill="#FFFFFF" d="M606.347,499.628h-0.641v-0.768h0.641V499.628z"/>
	<path fill="#FFFFFF" d="M608.634,499.628h-0.641v-0.768h0.641V499.628z"/>
	<path fill="#FFFFFF" d="M610.921,499.628h-0.641v-0.768h0.641V499.628z"/>
	<path fill="#FFFFFF" d="M613.209,499.628h-0.641v-0.768h0.641V499.628z"/>
	<path fill="#FFFFFF" d="M615.496,499.628h-0.641v-0.768h0.641V499.628z"/>
	<path fill="#FFFFFF" d="M617.783,499.628h-0.641v-0.768h0.641V499.628z"/>
	<path fill="#FFFFFF" d="M620.071,499.628h-0.641v-0.768h0.641V499.628z"/>
	<path fill="#FFFFFF" d="M622.358,499.628h-0.641v-0.768h0.641V499.628z"/>
	<path fill="#FFFFFF" d="M624.646,499.628h-0.641v-0.768h0.641V499.628z"/>
	<path fill="#FFFFFF" d="M626.934,499.628h-0.641v-0.768h0.641V499.628z"/>
	<path fill="#FFFFFF" d="M629.221,499.628h-0.641v-0.768h0.641V499.628z"/>
	<path fill="#FFFFFF" d="M631.509,499.628h-0.641v-0.768h0.641V499.628z"/>
	<path fill="#FFFFFF" d="M633.796,499.628h-0.641v-0.768h0.641V499.628z"/>
	<path fill="#FFFFFF" d="M636.084,499.628h-0.641v-0.768h0.641V499.628z"/>
	<path fill="#FFFFFF" d="M638.371,499.628h-0.641v-0.768h0.641V499.628z"/>
	<path fill="#FFFFFF" d="M640.658,499.628h-0.641v-0.768h0.641V499.628z"/>
	<path fill="#FFFFFF" d="M642.946,499.628h-0.641v-0.768h0.641V499.628z"/>
	<path fill="#FFFFFF" d="M645.233,499.628h-0.641v-0.768h0.641V499.628z"/>
	<path fill="#FFFFFF" d="M647.521,499.628h-0.641v-0.768h0.641V499.628z"/>
	<path fill="#FFFFFF" d="M649.809,499.628h-0.641v-0.768h0.641V499.628z"/>
	<path fill="#FFFFFF" d="M652.096,499.628h-0.641v-0.768h0.641V499.628z"/>
	<path fill="#FFFFFF" d="M654.383,499.628h-0.641v-0.768h0.641V499.628z"/>
	<path fill="#FFFFFF" d="M656.671,499.628h-0.641v-0.768h0.641V499.628z"/>
	<path fill="#FFFFFF" d="M658.958,499.628h-0.641v-0.768h0.641V499.628z"/>
	<path fill="#FFFFFF" d="M661.246,499.628h-0.641v-0.768h0.641V499.628z"/>
	<path fill="#FFFFFF" d="M663.533,499.628h-0.641v-0.768h0.641V499.628z"/>
</g>
<line fill="none" stroke="#E23B32" stroke-width="3" x1="611.409" y1="311.351" x2="659.767" y2="311.351"/>
<line fill="none" stroke="#FFFFFF" stroke-width="3" x1="611.409" y1="439.317" x2="659.767" y2="439.317"/>
<linearGradient id="SVGID_3_" gradientUnits="userSpaceOnUse" x1="635.5879" y1="439.3174" x2="635.5879" y2="311.3506">
	<stop  offset="0.0061" style="stop-color:#000000;stop-opacity:0"/>
	<stop  offset="0.0134" style="stop-color:#141313;stop-opacity:0.003"/>
	<stop  offset="0.0534" style="stop-color:#453530;stop-opacity:0.0191"/>
	<stop  offset="0.0986" style="stop-color:#593A2F;stop-opacity:0.0372"/>
	<stop  offset="0.1471" style="stop-color:#69392A;stop-opacity:0.0568"/>
	<stop  offset="0.1999" style="stop-color:#753523;stop-opacity:0.078"/>
	<stop  offset="0.2583" style="stop-color:#7F2E1A;stop-opacity:0.1015"/>
	<stop  offset="0.3241" style="stop-color:#872512;stop-opacity:0.128"/>
	<stop  offset="0.4011" style="stop-color:#8D1C0E;stop-opacity:0.159"/>
	<stop  offset="0.4962" style="stop-color:#91120B;stop-opacity:0.1972"/>
	<stop  offset="0.6296" style="stop-color:#940A0A;stop-opacity:0.2509"/>
	<stop  offset="1" style="stop-color:#94070A;stop-opacity:0.4"/>
</linearGradient>
<rect x="611.409" y="311.351" fill="url(#SVGID_3_)" width="48.357" height="127.967"/>
<linearGradient id="SVGID_4_" gradientUnits="userSpaceOnUse" x1="635.5879" y1="509.6943" x2="635.5879" y2="440.4053">
	<stop  offset="0" style="stop-color:#FFFFFF;stop-opacity:0"/>
	<stop  offset="1" style="stop-color:#FFFFFF;stop-opacity:0.15"/>
</linearGradient>
<rect x="611.409" y="440.405" fill="url(#SVGID_4_)" width="48.357" height="69.289"/>
</svg>
